<?xml version="1.0" encoding="UTF-8" standalone="no"?><svg xmlns="http://www.w3.org/2000/svg" xmlns:xlink="http://www.w3.org/1999/xlink" contentScriptType="application/ecmascript" contentStyleType="text/css" height="559px" preserveAspectRatio="none" style="width:1694px;height:559px;background:#FFFFFF;" version="1.1" viewBox="0 0 1694 559" width="1694px" zoomAndPan="magnify"><defs><filter height="300%" id="f6u0m6bu0x0tk" width="300%" x="-1" y="-1"><feGaussianBlur result="blurOut" stdDeviation="2.0"/><feColorMatrix in="blurOut" result="blurOut2" type="matrix" values="0 0 0 0 0 0 0 0 0 0 0 0 0 0 0 0 0 0 .4 0"/><feOffset dx="4.0" dy="4.0" in="blurOut2" result="blurOut3"/><feBlend in="SourceGraphic" in2="blurOut3" mode="normal"/></filter></defs><g><!--MD5=[d10371c429a20e8e62c953c705282488]
class Foo--><rect codeLine="104" fill="#FEFECE" filter="url(#f6u0m6bu0x0tk)" height="86.4141" id="Foo" style="stroke:#A80036;stroke-width:1.5;" width="171" x="284" y="49.5"/><ellipse cx="299" cy="65.5" fill="#ADD1B2" rx="11" ry="11" style="stroke:#A80036;stroke-width:1.0;"/><path d="M301.3438,61.1719 C300.4063,60.7344 299.8125,60.5938 298.9375,60.5938 C296.3125,60.5938 294.3125,62.6719 294.3125,65.3906 L294.3125,66.5156 C294.3125,69.0938 296.4219,70.9844 299.3125,70.9844 C300.5313,70.9844 301.6875,70.6875 302.4375,70.1406 C303.0156,69.7344 303.3438,69.2813 303.3438,68.8906 C303.3438,68.4375 302.9531,68.0469 302.4844,68.0469 C302.2656,68.0469 302.0625,68.125 301.875,68.3125 C301.4219,68.7969 301.4219,68.7969 301.2344,68.8906 C300.8125,69.1563 300.125,69.2813 299.3594,69.2813 C297.3125,69.2813 296.0156,68.1875 296.0156,66.4844 L296.0156,65.3906 C296.0156,63.6094 297.2656,62.2969 299,62.2969 C299.5781,62.2969 300.1875,62.4531 300.6563,62.7031 C301.1406,62.9844 301.3125,63.2031 301.4063,63.6094 C301.4688,64.0156 301.5,64.1406 301.6406,64.2656 C301.7813,64.4063 302.0156,64.5156 302.2344,64.5156 C302.5,64.5156 302.7656,64.375 302.9375,64.1563 C303.0469,64 303.0781,63.8125 303.0781,63.3906 L303.0781,61.9688 C303.0781,61.5313 303.0625,61.4063 302.9688,61.25 C302.8125,60.9844 302.5313,60.8438 302.2344,60.8438 C301.9375,60.8438 301.7344,60.9375 301.5156,61.25 L301.3438,61.1719 Z " fill="#000000"/><text fill="#000000" font-family="sans-serif" font-size="12" lengthAdjust="spacing" textLength="23" x="313" y="69.6543">Foo</text><rect fill="#FFFFFF" height="15.9688" style="stroke:#000000;stroke-width:1.0;stroke-dasharray:2.0,2.0;" width="114" x="344" y="46.5"/><text fill="#000000" font-family="sans-serif" font-size="12" font-style="italic" lengthAdjust="spacing" textLength="112" x="345" y="58.6387">? extends Element</text><line style="stroke:#A80036;stroke-width:1.5;" x1="285" x2="454" y1="81.5" y2="81.5"/><text fill="#000000" font-family="sans-serif" font-size="11" lengthAdjust="spacing" textLength="62" x="290" y="95.7104">String data</text><line style="stroke:#A80036;stroke-width:1.5;" x1="285" x2="454" y1="102.3047" y2="102.3047"/><text fill="#000000" font-family="sans-serif" font-size="11" lengthAdjust="spacing" textLength="86" x="290" y="116.5151">void methods()</text><text fill="#000000" font-family="sans-serif" font-size="11" lengthAdjust="spacing" textLength="50" x="290" y="129.3198">int size()</text><!--MD5=[c54ba4f61d01a424743e5a1fa0f9e38e]
class Dummy--><rect codeLine="20" fill="#FEFECE" filter="url(#f6u0m6bu0x0tk)" height="124.8281" id="Dummy" style="stroke:#A80036;stroke-width:1.5;" width="111" x="606" y="30"/><ellipse cx="636.3" cy="46" fill="#ADD1B2" rx="11" ry="11" style="stroke:#A80036;stroke-width:1.0;"/><path d="M638.6438,41.6719 C637.7063,41.2344 637.1125,41.0938 636.2375,41.0938 C633.6125,41.0938 631.6125,43.1719 631.6125,45.8906 L631.6125,47.0156 C631.6125,49.5938 633.7219,51.4844 636.6125,51.4844 C637.8313,51.4844 638.9875,51.1875 639.7375,50.6406 C640.3156,50.2344 640.6438,49.7813 640.6438,49.3906 C640.6438,48.9375 640.2531,48.5469 639.7844,48.5469 C639.5656,48.5469 639.3625,48.625 639.175,48.8125 C638.7219,49.2969 638.7219,49.2969 638.5344,49.3906 C638.1125,49.6563 637.425,49.7813 636.6594,49.7813 C634.6125,49.7813 633.3156,48.6875 633.3156,46.9844 L633.3156,45.8906 C633.3156,44.1094 634.5656,42.7969 636.3,42.7969 C636.8781,42.7969 637.4875,42.9531 637.9563,43.2031 C638.4406,43.4844 638.6125,43.7031 638.7063,44.1094 C638.7688,44.5156 638.8,44.6406 638.9406,44.7656 C639.0813,44.9063 639.3156,45.0156 639.5344,45.0156 C639.8,45.0156 640.0656,44.875 640.2375,44.6563 C640.3469,44.5 640.3781,44.3125 640.3781,43.8906 L640.3781,42.4688 C640.3781,42.0313 640.3625,41.9063 640.2688,41.75 C640.1125,41.4844 639.8313,41.3438 639.5344,41.3438 C639.2375,41.3438 639.0344,41.4375 638.8156,41.75 L638.6438,41.6719 Z " fill="#000000"/><text fill="#000000" font-family="sans-serif" font-size="12" lengthAdjust="spacing" textLength="45" x="653.7" y="50.1543">Dummy</text><line style="stroke:#A80036;stroke-width:1.5;" x1="607" x2="716" y1="62" y2="62"/><rect fill="none" height="6" style="stroke:#C82930;stroke-width:1.0;" width="6" x="614" y="70"/><text fill="#000000" font-family="sans-serif" font-size="11" lengthAdjust="spacing" textLength="32" x="626" y="76.2104">field1</text><polygon fill="none" points="617,80.8047,621,84.8047,617,88.8047,613,84.8047" style="stroke:#B38D22;stroke-width:1.0;"/><text fill="#000000" font-family="sans-serif" font-size="11" lengthAdjust="spacing" textLength="32" x="626" y="89.0151">field2</text><text fill="#000000" font-family="sans-serif" font-size="11" lengthAdjust="spacing" text-decoration="underline" textLength="47" x="626" y="101.8198">String id</text><line style="stroke:#A80036;stroke-width:1.5;" x1="607" x2="716" y1="108.4141" y2="108.4141"/><polygon fill="#4177AF" points="617,115.4141,613,121.4141,621,121.4141" style="stroke:#1963A0;stroke-width:1.0;"/><text fill="#000000" font-family="sans-serif" font-size="11" lengthAdjust="spacing" textLength="59" x="626" y="122.6245">method1()</text><ellipse cx="617" cy="132.2188" fill="#84BE84" rx="3" ry="3" style="stroke:#038048;stroke-width:1.0;"/><text fill="#000000" font-family="sans-serif" font-size="11" lengthAdjust="spacing" textLength="59" x="626" y="135.4292">method2()</text><text fill="#000000" font-family="sans-serif" font-size="11" font-style="italic" lengthAdjust="spacing" textLength="85" x="626" y="148.2339">void methods()</text><!--MD5=[4272a0a1957754cd214430d460c5f4ca]
class Foo1--><rect codeLine="96" fill="#FEFECE" filter="url(#f6u0m6bu0x0tk)" height="174.4375" id="Foo1" style="stroke:#A80036;stroke-width:1.5;" width="185" x="920" y="238"/><ellipse cx="993.25" cy="254" fill="#ADD1B2" rx="11" ry="11" style="stroke:#A80036;stroke-width:1.0;"/><path d="M995.5938,249.6719 C994.6563,249.2344 994.0625,249.0938 993.1875,249.0938 C990.5625,249.0938 988.5625,251.1719 988.5625,253.8906 L988.5625,255.0156 C988.5625,257.5938 990.6719,259.4844 993.5625,259.4844 C994.7813,259.4844 995.9375,259.1875 996.6875,258.6406 C997.2656,258.2344 997.5938,257.7813 997.5938,257.3906 C997.5938,256.9375 997.2031,256.5469 996.7344,256.5469 C996.5156,256.5469 996.3125,256.625 996.125,256.8125 C995.6719,257.2969 995.6719,257.2969 995.4844,257.3906 C995.0625,257.6563 994.375,257.7813 993.6094,257.7813 C991.5625,257.7813 990.2656,256.6875 990.2656,254.9844 L990.2656,253.8906 C990.2656,252.1094 991.5156,250.7969 993.25,250.7969 C993.8281,250.7969 994.4375,250.9531 994.9063,251.2031 C995.3906,251.4844 995.5625,251.7031 995.6563,252.1094 C995.7188,252.5156 995.75,252.6406 995.8906,252.7656 C996.0313,252.9063 996.2656,253.0156 996.4844,253.0156 C996.75,253.0156 997.0156,252.875 997.1875,252.6563 C997.2969,252.5 997.3281,252.3125 997.3281,251.8906 L997.3281,250.4688 C997.3281,250.0313 997.3125,249.9063 997.2188,249.75 C997.0625,249.4844 996.7813,249.3438 996.4844,249.3438 C996.1875,249.3438 995.9844,249.4375 995.7656,249.75 L995.5938,249.6719 Z " fill="#000000"/><text fill="#000000" font-family="sans-serif" font-size="12" lengthAdjust="spacing" textLength="30" x="1013.75" y="258.1543">Foo1</text><line style="stroke:#A80036;stroke-width:1.5;" x1="921" x2="1104" y1="270" y2="270"/><text fill="#000000" font-family="sans-serif" font-size="11" lengthAdjust="spacing" textLength="70" x="926" y="284.2104">You can use</text><text fill="#000000" font-family="sans-serif" font-size="11" lengthAdjust="spacing" textLength="74" x="926" y="297.0151">several lines</text><line style="stroke:#A80036;stroke-width:1.0;stroke-dasharray:1.0,2.0;" x1="921" x2="1104" y1="303.6094" y2="303.6094"/><text fill="#000000" font-family="sans-serif" font-size="11" lengthAdjust="spacing" textLength="69" x="926" y="317.8198">as you want</text><text fill="#000000" font-family="sans-serif" font-size="11" lengthAdjust="spacing" textLength="57" x="926" y="330.6245">and group</text><line style="stroke:#A80036;stroke-width:1.0;" x1="921" x2="1104" y1="337.2188" y2="337.2188"/><line style="stroke:#A80036;stroke-width:1.0;" x1="921" x2="1104" y1="339.2188" y2="339.2188"/><text fill="#000000" font-family="sans-serif" font-size="11" lengthAdjust="spacing" textLength="90" x="926" y="351.4292">things together.</text><line style="stroke:#A80036;stroke-width:1.5;" x1="921" x2="1104" y1="358.0234" y2="358.0234"/><text fill="#000000" font-family="sans-serif" font-size="11" lengthAdjust="spacing" textLength="173" x="926" y="372.2339">You can have as many groups</text><text fill="#000000" font-family="sans-serif" font-size="11" lengthAdjust="spacing" textLength="69" x="926" y="385.0386">as you want</text><line style="stroke:#A80036;stroke-width:1.0;" x1="921" x2="1104" y1="391.6328" y2="391.6328"/><text fill="#000000" font-family="sans-serif" font-size="11" lengthAdjust="spacing" textLength="68" x="926" y="405.8433">End of class</text><!--MD5=[3fd616f346a44cd59a91eb10b19e157c]
class User--><rect codeLine="43" fill="#FEFECE" filter="url(#f6u0m6bu0x0tk)" height="171.2422" id="User" style="stroke:#A80036;stroke-width:1.5;" width="102" x="752.5" y="7"/><ellipse cx="785.95" cy="23" fill="#ADD1B2" rx="11" ry="11" style="stroke:#A80036;stroke-width:1.0;"/><path d="M788.2938,18.6719 C787.3563,18.2344 786.7625,18.0938 785.8875,18.0938 C783.2625,18.0938 781.2625,20.1719 781.2625,22.8906 L781.2625,24.0156 C781.2625,26.5938 783.3719,28.4844 786.2625,28.4844 C787.4813,28.4844 788.6375,28.1875 789.3875,27.6406 C789.9656,27.2344 790.2938,26.7813 790.2938,26.3906 C790.2938,25.9375 789.9031,25.5469 789.4344,25.5469 C789.2156,25.5469 789.0125,25.625 788.825,25.8125 C788.3719,26.2969 788.3719,26.2969 788.1844,26.3906 C787.7625,26.6563 787.075,26.7813 786.3094,26.7813 C784.2625,26.7813 782.9656,25.6875 782.9656,23.9844 L782.9656,22.8906 C782.9656,21.1094 784.2156,19.7969 785.95,19.7969 C786.5281,19.7969 787.1375,19.9531 787.6063,20.2031 C788.0906,20.4844 788.2625,20.7031 788.3563,21.1094 C788.4188,21.5156 788.45,21.6406 788.5906,21.7656 C788.7313,21.9063 788.9656,22.0156 789.1844,22.0156 C789.45,22.0156 789.7156,21.875 789.8875,21.6563 C789.9969,21.5 790.0281,21.3125 790.0281,20.8906 L790.0281,19.4688 C790.0281,19.0313 790.0125,18.9063 789.9188,18.75 C789.7625,18.4844 789.4813,18.3438 789.1844,18.3438 C788.8875,18.3438 788.6844,18.4375 788.4656,18.75 L788.2938,18.6719 Z " fill="#000000"/><text fill="#000000" font-family="sans-serif" font-size="12" lengthAdjust="spacing" textLength="29" x="804.05" y="27.1543">User</text><line style="stroke:#A80036;stroke-width:1.5;" x1="753.5" x2="853.5" y1="39" y2="39"/><ellipse cx="763.5" cy="66.8047" fill="#84BE84" rx="3" ry="3" style="stroke:#038048;stroke-width:1.0;"/><text fill="#000000" font-family="sans-serif" font-size="11" lengthAdjust="spacing" textLength="61" x="772.5" y="70.0151">getName()</text><ellipse cx="763.5" cy="79.6094" fill="#84BE84" rx="3" ry="3" style="stroke:#038048;stroke-width:1.0;"/><text fill="#000000" font-family="sans-serif" font-size="11" lengthAdjust="spacing" textLength="73" x="772.5" y="82.8198">getAddress()</text><line style="stroke:#A80036;stroke-width:1.0;stroke-dasharray:1.0,2.0;" x1="753.5" x2="763" y1="53.4023" y2="53.4023"/><text fill="#000000" font-family="sans-serif" font-size="11" lengthAdjust="spacing" textLength="81" x="763" y="56.7104">Simple Getter</text><line style="stroke:#A80036;stroke-width:1.0;stroke-dasharray:1.0,2.0;" x1="844" x2="853.5" y1="53.4023" y2="53.4023"/><ellipse cx="763.5" cy="109.2188" fill="#84BE84" rx="3" ry="3" style="stroke:#038048;stroke-width:1.0;"/><text fill="#000000" font-family="sans-serif" font-size="11" lengthAdjust="spacing" textLength="60" x="772.5" y="112.4292">setName()</text><line style="stroke:#A80036;stroke-width:1.0;stroke-dasharray:1.0,2.0;" x1="753.5" x2="767.5" y1="95.8164" y2="95.8164"/><text fill="#000000" font-family="sans-serif" font-size="11" lengthAdjust="spacing" textLength="72" x="767.5" y="99.1245">Some setter</text><line style="stroke:#A80036;stroke-width:1.0;stroke-dasharray:1.0,2.0;" x1="839.5" x2="853.5" y1="95.8164" y2="95.8164"/><text fill="#000000" font-family="sans-serif" font-size="11" lengthAdjust="spacing" textLength="40" x="758.5" y="142.0386">int age</text><line style="stroke:#A80036;stroke-width:1.5;" x1="753.5" x2="769" y1="125.4258" y2="125.4258"/><text fill="#000000" font-family="sans-serif" font-size="11" lengthAdjust="spacing" textLength="69" x="769" y="128.7339">private data</text><line style="stroke:#A80036;stroke-width:1.5;" x1="838" x2="853.5" y1="125.4258" y2="125.4258"/><text fill="#000000" font-family="sans-serif" font-size="11" lengthAdjust="spacing" textLength="90" x="758.5" y="171.6479">String password</text><line style="stroke:#A80036;stroke-width:1.0;" x1="753.5" x2="774.5" y1="155.0352" y2="155.0352"/><text fill="#000000" font-family="sans-serif" font-size="11" lengthAdjust="spacing" textLength="58" x="774.5" y="158.3433">encrypted</text><line style="stroke:#A80036;stroke-width:1.0;" x1="832.5" x2="853.5" y1="155.0352" y2="155.0352"/><!--MD5=[b2f23c4a06b9bc4c947f037f864aea3c]
class Class01--><rect fill="#FEFECE" filter="url(#f6u0m6bu0x0tk)" height="48" id="Class01" style="stroke:#A80036;stroke-width:1.5;" width="79" x="1141" y="68.5"/><ellipse cx="1156" cy="84.5" fill="#ADD1B2" rx="11" ry="11" style="stroke:#A80036;stroke-width:1.0;"/><path d="M1158.3438,80.1719 C1157.4063,79.7344 1156.8125,79.5938 1155.9375,79.5938 C1153.3125,79.5938 1151.3125,81.6719 1151.3125,84.3906 L1151.3125,85.5156 C1151.3125,88.0938 1153.4219,89.9844 1156.3125,89.9844 C1157.5313,89.9844 1158.6875,89.6875 1159.4375,89.1406 C1160.0156,88.7344 1160.3438,88.2813 1160.3438,87.8906 C1160.3438,87.4375 1159.9531,87.0469 1159.4844,87.0469 C1159.2656,87.0469 1159.0625,87.125 1158.875,87.3125 C1158.4219,87.7969 1158.4219,87.7969 1158.2344,87.8906 C1157.8125,88.1563 1157.125,88.2813 1156.3594,88.2813 C1154.3125,88.2813 1153.0156,87.1875 1153.0156,85.4844 L1153.0156,84.3906 C1153.0156,82.6094 1154.2656,81.2969 1156,81.2969 C1156.5781,81.2969 1157.1875,81.4531 1157.6563,81.7031 C1158.1406,81.9844 1158.3125,82.2031 1158.4063,82.6094 C1158.4688,83.0156 1158.5,83.1406 1158.6406,83.2656 C1158.7813,83.4063 1159.0156,83.5156 1159.2344,83.5156 C1159.5,83.5156 1159.7656,83.375 1159.9375,83.1563 C1160.0469,83 1160.0781,82.8125 1160.0781,82.3906 L1160.0781,80.9688 C1160.0781,80.5313 1160.0625,80.4063 1159.9688,80.25 C1159.8125,79.9844 1159.5313,79.8438 1159.2344,79.8438 C1158.9375,79.8438 1158.7344,79.9375 1158.5156,80.25 L1158.3438,80.1719 Z " fill="#000000"/><text fill="#000000" font-family="sans-serif" font-size="12" lengthAdjust="spacing" textLength="47" x="1170" y="88.6543">Class01</text><line style="stroke:#A80036;stroke-width:1.5;" x1="1142" x2="1219" y1="100.5" y2="100.5"/><line style="stroke:#A80036;stroke-width:1.5;" x1="1142" x2="1219" y1="108.5" y2="108.5"/><!--MD5=[67b7f66b9c6b27d60ed6d0424460c06c]
class Class02--><rect fill="#FEFECE" filter="url(#f6u0m6bu0x0tk)" height="48" id="Class02" style="stroke:#A80036;stroke-width:1.5;" width="80" x="1140.5" y="301"/><ellipse cx="1155.5" cy="317" fill="#ADD1B2" rx="11" ry="11" style="stroke:#A80036;stroke-width:1.0;"/><path d="M1157.8438,312.6719 C1156.9063,312.2344 1156.3125,312.0938 1155.4375,312.0938 C1152.8125,312.0938 1150.8125,314.1719 1150.8125,316.8906 L1150.8125,318.0156 C1150.8125,320.5938 1152.9219,322.4844 1155.8125,322.4844 C1157.0313,322.4844 1158.1875,322.1875 1158.9375,321.6406 C1159.5156,321.2344 1159.8438,320.7813 1159.8438,320.3906 C1159.8438,319.9375 1159.4531,319.5469 1158.9844,319.5469 C1158.7656,319.5469 1158.5625,319.625 1158.375,319.8125 C1157.9219,320.2969 1157.9219,320.2969 1157.7344,320.3906 C1157.3125,320.6563 1156.625,320.7813 1155.8594,320.7813 C1153.8125,320.7813 1152.5156,319.6875 1152.5156,317.9844 L1152.5156,316.8906 C1152.5156,315.1094 1153.7656,313.7969 1155.5,313.7969 C1156.0781,313.7969 1156.6875,313.9531 1157.1563,314.2031 C1157.6406,314.4844 1157.8125,314.7031 1157.9063,315.1094 C1157.9688,315.5156 1158,315.6406 1158.1406,315.7656 C1158.2813,315.9063 1158.5156,316.0156 1158.7344,316.0156 C1159,316.0156 1159.2656,315.875 1159.4375,315.6563 C1159.5469,315.5 1159.5781,315.3125 1159.5781,314.8906 L1159.5781,313.4688 C1159.5781,313.0313 1159.5625,312.9063 1159.4688,312.75 C1159.3125,312.4844 1159.0313,312.3438 1158.7344,312.3438 C1158.4375,312.3438 1158.2344,312.4375 1158.0156,312.75 L1157.8438,312.6719 Z " fill="#000000"/><text fill="#000000" font-family="sans-serif" font-size="12" lengthAdjust="spacing" textLength="48" x="1169.5" y="321.1543">Class02</text><line style="stroke:#A80036;stroke-width:1.5;" x1="1141.5" x2="1219.5" y1="333" y2="333"/><line style="stroke:#A80036;stroke-width:1.5;" x1="1141.5" x2="1219.5" y1="341" y2="341"/><!--MD5=[e34eefe962fcadefcbf83660cc436420]
class Class03--><rect fill="#FEFECE" filter="url(#f6u0m6bu0x0tk)" height="48" id="Class03" style="stroke:#A80036;stroke-width:1.5;" width="80" x="1255.5" y="68.5"/><ellipse cx="1270.5" cy="84.5" fill="#ADD1B2" rx="11" ry="11" style="stroke:#A80036;stroke-width:1.0;"/><path d="M1272.8438,80.1719 C1271.9063,79.7344 1271.3125,79.5938 1270.4375,79.5938 C1267.8125,79.5938 1265.8125,81.6719 1265.8125,84.3906 L1265.8125,85.5156 C1265.8125,88.0938 1267.9219,89.9844 1270.8125,89.9844 C1272.0313,89.9844 1273.1875,89.6875 1273.9375,89.1406 C1274.5156,88.7344 1274.8438,88.2813 1274.8438,87.8906 C1274.8438,87.4375 1274.4531,87.0469 1273.9844,87.0469 C1273.7656,87.0469 1273.5625,87.125 1273.375,87.3125 C1272.9219,87.7969 1272.9219,87.7969 1272.7344,87.8906 C1272.3125,88.1563 1271.625,88.2813 1270.8594,88.2813 C1268.8125,88.2813 1267.5156,87.1875 1267.5156,85.4844 L1267.5156,84.3906 C1267.5156,82.6094 1268.7656,81.2969 1270.5,81.2969 C1271.0781,81.2969 1271.6875,81.4531 1272.1563,81.7031 C1272.6406,81.9844 1272.8125,82.2031 1272.9063,82.6094 C1272.9688,83.0156 1273,83.1406 1273.1406,83.2656 C1273.2813,83.4063 1273.5156,83.5156 1273.7344,83.5156 C1274,83.5156 1274.2656,83.375 1274.4375,83.1563 C1274.5469,83 1274.5781,82.8125 1274.5781,82.3906 L1274.5781,80.9688 C1274.5781,80.5313 1274.5625,80.4063 1274.4688,80.25 C1274.3125,79.9844 1274.0313,79.8438 1273.7344,79.8438 C1273.4375,79.8438 1273.2344,79.9375 1273.0156,80.25 L1272.8438,80.1719 Z " fill="#000000"/><text fill="#000000" font-family="sans-serif" font-size="12" lengthAdjust="spacing" textLength="48" x="1284.5" y="88.6543">Class03</text><line style="stroke:#A80036;stroke-width:1.5;" x1="1256.5" x2="1334.5" y1="100.5" y2="100.5"/><line style="stroke:#A80036;stroke-width:1.5;" x1="1256.5" x2="1334.5" y1="108.5" y2="108.5"/><!--MD5=[d53a23475d458e69a9e37a48405189e2]
class Class04--><rect fill="#FEFECE" filter="url(#f6u0m6bu0x0tk)" height="48" id="Class04" style="stroke:#A80036;stroke-width:1.5;" width="80" x="1255.5" y="301"/><ellipse cx="1270.5" cy="317" fill="#ADD1B2" rx="11" ry="11" style="stroke:#A80036;stroke-width:1.0;"/><path d="M1272.8438,312.6719 C1271.9063,312.2344 1271.3125,312.0938 1270.4375,312.0938 C1267.8125,312.0938 1265.8125,314.1719 1265.8125,316.8906 L1265.8125,318.0156 C1265.8125,320.5938 1267.9219,322.4844 1270.8125,322.4844 C1272.0313,322.4844 1273.1875,322.1875 1273.9375,321.6406 C1274.5156,321.2344 1274.8438,320.7813 1274.8438,320.3906 C1274.8438,319.9375 1274.4531,319.5469 1273.9844,319.5469 C1273.7656,319.5469 1273.5625,319.625 1273.375,319.8125 C1272.9219,320.2969 1272.9219,320.2969 1272.7344,320.3906 C1272.3125,320.6563 1271.625,320.7813 1270.8594,320.7813 C1268.8125,320.7813 1267.5156,319.6875 1267.5156,317.9844 L1267.5156,316.8906 C1267.5156,315.1094 1268.7656,313.7969 1270.5,313.7969 C1271.0781,313.7969 1271.6875,313.9531 1272.1563,314.2031 C1272.6406,314.4844 1272.8125,314.7031 1272.9063,315.1094 C1272.9688,315.5156 1273,315.6406 1273.1406,315.7656 C1273.2813,315.9063 1273.5156,316.0156 1273.7344,316.0156 C1274,316.0156 1274.2656,315.875 1274.4375,315.6563 C1274.5469,315.5 1274.5781,315.3125 1274.5781,314.8906 L1274.5781,313.4688 C1274.5781,313.0313 1274.5625,312.9063 1274.4688,312.75 C1274.3125,312.4844 1274.0313,312.3438 1273.7344,312.3438 C1273.4375,312.3438 1273.2344,312.4375 1273.0156,312.75 L1272.8438,312.6719 Z " fill="#000000"/><text fill="#000000" font-family="sans-serif" font-size="12" lengthAdjust="spacing" textLength="48" x="1284.5" y="321.1543">Class04</text><line style="stroke:#A80036;stroke-width:1.5;" x1="1256.5" x2="1334.5" y1="333" y2="333"/><line style="stroke:#A80036;stroke-width:1.5;" x1="1256.5" x2="1334.5" y1="341" y2="341"/><!--MD5=[21c802bf509ebb275d96eccffaf3e0b6]
class Class05--><rect fill="#FEFECE" filter="url(#f6u0m6bu0x0tk)" height="48" id="Class05" style="stroke:#A80036;stroke-width:1.5;" width="80" x="1370.5" y="68.5"/><ellipse cx="1385.5" cy="84.5" fill="#ADD1B2" rx="11" ry="11" style="stroke:#A80036;stroke-width:1.0;"/><path d="M1387.8438,80.1719 C1386.9063,79.7344 1386.3125,79.5938 1385.4375,79.5938 C1382.8125,79.5938 1380.8125,81.6719 1380.8125,84.3906 L1380.8125,85.5156 C1380.8125,88.0938 1382.9219,89.9844 1385.8125,89.9844 C1387.0313,89.9844 1388.1875,89.6875 1388.9375,89.1406 C1389.5156,88.7344 1389.8438,88.2813 1389.8438,87.8906 C1389.8438,87.4375 1389.4531,87.0469 1388.9844,87.0469 C1388.7656,87.0469 1388.5625,87.125 1388.375,87.3125 C1387.9219,87.7969 1387.9219,87.7969 1387.7344,87.8906 C1387.3125,88.1563 1386.625,88.2813 1385.8594,88.2813 C1383.8125,88.2813 1382.5156,87.1875 1382.5156,85.4844 L1382.5156,84.3906 C1382.5156,82.6094 1383.7656,81.2969 1385.5,81.2969 C1386.0781,81.2969 1386.6875,81.4531 1387.1563,81.7031 C1387.6406,81.9844 1387.8125,82.2031 1387.9063,82.6094 C1387.9688,83.0156 1388,83.1406 1388.1406,83.2656 C1388.2813,83.4063 1388.5156,83.5156 1388.7344,83.5156 C1389,83.5156 1389.2656,83.375 1389.4375,83.1563 C1389.5469,83 1389.5781,82.8125 1389.5781,82.3906 L1389.5781,80.9688 C1389.5781,80.5313 1389.5625,80.4063 1389.4688,80.25 C1389.3125,79.9844 1389.0313,79.8438 1388.7344,79.8438 C1388.4375,79.8438 1388.2344,79.9375 1388.0156,80.25 L1387.8438,80.1719 Z " fill="#000000"/><text fill="#000000" font-family="sans-serif" font-size="12" lengthAdjust="spacing" textLength="48" x="1399.5" y="88.6543">Class05</text><line style="stroke:#A80036;stroke-width:1.5;" x1="1371.5" x2="1449.5" y1="100.5" y2="100.5"/><line style="stroke:#A80036;stroke-width:1.5;" x1="1371.5" x2="1449.5" y1="108.5" y2="108.5"/><!--MD5=[247dd373b5711b206209116e093ec52c]
class Class06--><rect fill="#FEFECE" filter="url(#f6u0m6bu0x0tk)" height="48" id="Class06" style="stroke:#A80036;stroke-width:1.5;" width="80" x="1370.5" y="301"/><ellipse cx="1385.5" cy="317" fill="#ADD1B2" rx="11" ry="11" style="stroke:#A80036;stroke-width:1.0;"/><path d="M1387.8438,312.6719 C1386.9063,312.2344 1386.3125,312.0938 1385.4375,312.0938 C1382.8125,312.0938 1380.8125,314.1719 1380.8125,316.8906 L1380.8125,318.0156 C1380.8125,320.5938 1382.9219,322.4844 1385.8125,322.4844 C1387.0313,322.4844 1388.1875,322.1875 1388.9375,321.6406 C1389.5156,321.2344 1389.8438,320.7813 1389.8438,320.3906 C1389.8438,319.9375 1389.4531,319.5469 1388.9844,319.5469 C1388.7656,319.5469 1388.5625,319.625 1388.375,319.8125 C1387.9219,320.2969 1387.9219,320.2969 1387.7344,320.3906 C1387.3125,320.6563 1386.625,320.7813 1385.8594,320.7813 C1383.8125,320.7813 1382.5156,319.6875 1382.5156,317.9844 L1382.5156,316.8906 C1382.5156,315.1094 1383.7656,313.7969 1385.5,313.7969 C1386.0781,313.7969 1386.6875,313.9531 1387.1563,314.2031 C1387.6406,314.4844 1387.8125,314.7031 1387.9063,315.1094 C1387.9688,315.5156 1388,315.6406 1388.1406,315.7656 C1388.2813,315.9063 1388.5156,316.0156 1388.7344,316.0156 C1389,316.0156 1389.2656,315.875 1389.4375,315.6563 C1389.5469,315.5 1389.5781,315.3125 1389.5781,314.8906 L1389.5781,313.4688 C1389.5781,313.0313 1389.5625,312.9063 1389.4688,312.75 C1389.3125,312.4844 1389.0313,312.3438 1388.7344,312.3438 C1388.4375,312.3438 1388.2344,312.4375 1388.0156,312.75 L1387.8438,312.6719 Z " fill="#000000"/><text fill="#000000" font-family="sans-serif" font-size="12" lengthAdjust="spacing" textLength="48" x="1399.5" y="321.1543">Class06</text><line style="stroke:#A80036;stroke-width:1.5;" x1="1371.5" x2="1449.5" y1="333" y2="333"/><line style="stroke:#A80036;stroke-width:1.5;" x1="1371.5" x2="1449.5" y1="341" y2="341"/><!--MD5=[83017deacfdfe1c29bd0eb2a2cc9c723]
class Class07--><rect fill="#FEFECE" filter="url(#f6u0m6bu0x0tk)" height="48" id="Class07" style="stroke:#A80036;stroke-width:1.5;" width="80" x="1485.5" y="68.5"/><ellipse cx="1500.5" cy="84.5" fill="#ADD1B2" rx="11" ry="11" style="stroke:#A80036;stroke-width:1.0;"/><path d="M1502.8438,80.1719 C1501.9063,79.7344 1501.3125,79.5938 1500.4375,79.5938 C1497.8125,79.5938 1495.8125,81.6719 1495.8125,84.3906 L1495.8125,85.5156 C1495.8125,88.0938 1497.9219,89.9844 1500.8125,89.9844 C1502.0313,89.9844 1503.1875,89.6875 1503.9375,89.1406 C1504.5156,88.7344 1504.8438,88.2813 1504.8438,87.8906 C1504.8438,87.4375 1504.4531,87.0469 1503.9844,87.0469 C1503.7656,87.0469 1503.5625,87.125 1503.375,87.3125 C1502.9219,87.7969 1502.9219,87.7969 1502.7344,87.8906 C1502.3125,88.1563 1501.625,88.2813 1500.8594,88.2813 C1498.8125,88.2813 1497.5156,87.1875 1497.5156,85.4844 L1497.5156,84.3906 C1497.5156,82.6094 1498.7656,81.2969 1500.5,81.2969 C1501.0781,81.2969 1501.6875,81.4531 1502.1563,81.7031 C1502.6406,81.9844 1502.8125,82.2031 1502.9063,82.6094 C1502.9688,83.0156 1503,83.1406 1503.1406,83.2656 C1503.2813,83.4063 1503.5156,83.5156 1503.7344,83.5156 C1504,83.5156 1504.2656,83.375 1504.4375,83.1563 C1504.5469,83 1504.5781,82.8125 1504.5781,82.3906 L1504.5781,80.9688 C1504.5781,80.5313 1504.5625,80.4063 1504.4688,80.25 C1504.3125,79.9844 1504.0313,79.8438 1503.7344,79.8438 C1503.4375,79.8438 1503.2344,79.9375 1503.0156,80.25 L1502.8438,80.1719 Z " fill="#000000"/><text fill="#000000" font-family="sans-serif" font-size="12" lengthAdjust="spacing" textLength="48" x="1514.5" y="88.6543">Class07</text><line style="stroke:#A80036;stroke-width:1.5;" x1="1486.5" x2="1564.5" y1="100.5" y2="100.5"/><line style="stroke:#A80036;stroke-width:1.5;" x1="1486.5" x2="1564.5" y1="108.5" y2="108.5"/><!--MD5=[0e75c8574cc137f0f93c5ac687b4b98c]
class Class08--><rect fill="#FEFECE" filter="url(#f6u0m6bu0x0tk)" height="48" id="Class08" style="stroke:#A80036;stroke-width:1.5;" width="80" x="1485.5" y="301"/><ellipse cx="1500.5" cy="317" fill="#ADD1B2" rx="11" ry="11" style="stroke:#A80036;stroke-width:1.0;"/><path d="M1502.8438,312.6719 C1501.9063,312.2344 1501.3125,312.0938 1500.4375,312.0938 C1497.8125,312.0938 1495.8125,314.1719 1495.8125,316.8906 L1495.8125,318.0156 C1495.8125,320.5938 1497.9219,322.4844 1500.8125,322.4844 C1502.0313,322.4844 1503.1875,322.1875 1503.9375,321.6406 C1504.5156,321.2344 1504.8438,320.7813 1504.8438,320.3906 C1504.8438,319.9375 1504.4531,319.5469 1503.9844,319.5469 C1503.7656,319.5469 1503.5625,319.625 1503.375,319.8125 C1502.9219,320.2969 1502.9219,320.2969 1502.7344,320.3906 C1502.3125,320.6563 1501.625,320.7813 1500.8594,320.7813 C1498.8125,320.7813 1497.5156,319.6875 1497.5156,317.9844 L1497.5156,316.8906 C1497.5156,315.1094 1498.7656,313.7969 1500.5,313.7969 C1501.0781,313.7969 1501.6875,313.9531 1502.1563,314.2031 C1502.6406,314.4844 1502.8125,314.7031 1502.9063,315.1094 C1502.9688,315.5156 1503,315.6406 1503.1406,315.7656 C1503.2813,315.9063 1503.5156,316.0156 1503.7344,316.0156 C1504,316.0156 1504.2656,315.875 1504.4375,315.6563 C1504.5469,315.5 1504.5781,315.3125 1504.5781,314.8906 L1504.5781,313.4688 C1504.5781,313.0313 1504.5625,312.9063 1504.4688,312.75 C1504.3125,312.4844 1504.0313,312.3438 1503.7344,312.3438 C1503.4375,312.3438 1503.2344,312.4375 1503.0156,312.75 L1502.8438,312.6719 Z " fill="#000000"/><text fill="#000000" font-family="sans-serif" font-size="12" lengthAdjust="spacing" textLength="48" x="1514.5" y="321.1543">Class08</text><line style="stroke:#A80036;stroke-width:1.5;" x1="1486.5" x2="1564.5" y1="333" y2="333"/><line style="stroke:#A80036;stroke-width:1.5;" x1="1486.5" x2="1564.5" y1="341" y2="341"/><!--MD5=[11c0341282256c64706f32de960d439a]
class Class09--><rect fill="#FEFECE" filter="url(#f6u0m6bu0x0tk)" height="48" id="Class09" style="stroke:#A80036;stroke-width:1.5;" width="80" x="1600.5" y="68.5"/><ellipse cx="1615.5" cy="84.5" fill="#ADD1B2" rx="11" ry="11" style="stroke:#A80036;stroke-width:1.0;"/><path d="M1617.8438,80.1719 C1616.9063,79.7344 1616.3125,79.5938 1615.4375,79.5938 C1612.8125,79.5938 1610.8125,81.6719 1610.8125,84.3906 L1610.8125,85.5156 C1610.8125,88.0938 1612.9219,89.9844 1615.8125,89.9844 C1617.0313,89.9844 1618.1875,89.6875 1618.9375,89.1406 C1619.5156,88.7344 1619.8438,88.2813 1619.8438,87.8906 C1619.8438,87.4375 1619.4531,87.0469 1618.9844,87.0469 C1618.7656,87.0469 1618.5625,87.125 1618.375,87.3125 C1617.9219,87.7969 1617.9219,87.7969 1617.7344,87.8906 C1617.3125,88.1563 1616.625,88.2813 1615.8594,88.2813 C1613.8125,88.2813 1612.5156,87.1875 1612.5156,85.4844 L1612.5156,84.3906 C1612.5156,82.6094 1613.7656,81.2969 1615.5,81.2969 C1616.0781,81.2969 1616.6875,81.4531 1617.1563,81.7031 C1617.6406,81.9844 1617.8125,82.2031 1617.9063,82.6094 C1617.9688,83.0156 1618,83.1406 1618.1406,83.2656 C1618.2813,83.4063 1618.5156,83.5156 1618.7344,83.5156 C1619,83.5156 1619.2656,83.375 1619.4375,83.1563 C1619.5469,83 1619.5781,82.8125 1619.5781,82.3906 L1619.5781,80.9688 C1619.5781,80.5313 1619.5625,80.4063 1619.4688,80.25 C1619.3125,79.9844 1619.0313,79.8438 1618.7344,79.8438 C1618.4375,79.8438 1618.2344,79.9375 1618.0156,80.25 L1617.8438,80.1719 Z " fill="#000000"/><text fill="#000000" font-family="sans-serif" font-size="12" lengthAdjust="spacing" textLength="48" x="1629.5" y="88.6543">Class09</text><line style="stroke:#A80036;stroke-width:1.5;" x1="1601.5" x2="1679.5" y1="100.5" y2="100.5"/><line style="stroke:#A80036;stroke-width:1.5;" x1="1601.5" x2="1679.5" y1="108.5" y2="108.5"/><!--MD5=[f0780a43e5c0af3c52b439b7f3f3994e]
class Class10--><rect fill="#FEFECE" filter="url(#f6u0m6bu0x0tk)" height="48" id="Class10" style="stroke:#A80036;stroke-width:1.5;" width="79" x="1601" y="301"/><ellipse cx="1616" cy="317" fill="#ADD1B2" rx="11" ry="11" style="stroke:#A80036;stroke-width:1.0;"/><path d="M1618.3438,312.6719 C1617.4063,312.2344 1616.8125,312.0938 1615.9375,312.0938 C1613.3125,312.0938 1611.3125,314.1719 1611.3125,316.8906 L1611.3125,318.0156 C1611.3125,320.5938 1613.4219,322.4844 1616.3125,322.4844 C1617.5313,322.4844 1618.6875,322.1875 1619.4375,321.6406 C1620.0156,321.2344 1620.3438,320.7813 1620.3438,320.3906 C1620.3438,319.9375 1619.9531,319.5469 1619.4844,319.5469 C1619.2656,319.5469 1619.0625,319.625 1618.875,319.8125 C1618.4219,320.2969 1618.4219,320.2969 1618.2344,320.3906 C1617.8125,320.6563 1617.125,320.7813 1616.3594,320.7813 C1614.3125,320.7813 1613.0156,319.6875 1613.0156,317.9844 L1613.0156,316.8906 C1613.0156,315.1094 1614.2656,313.7969 1616,313.7969 C1616.5781,313.7969 1617.1875,313.9531 1617.6563,314.2031 C1618.1406,314.4844 1618.3125,314.7031 1618.4063,315.1094 C1618.4688,315.5156 1618.5,315.6406 1618.6406,315.7656 C1618.7813,315.9063 1619.0156,316.0156 1619.2344,316.0156 C1619.5,316.0156 1619.7656,315.875 1619.9375,315.6563 C1620.0469,315.5 1620.0781,315.3125 1620.0781,314.8906 L1620.0781,313.4688 C1620.0781,313.0313 1620.0625,312.9063 1619.9688,312.75 C1619.8125,312.4844 1619.5313,312.3438 1619.2344,312.3438 C1618.9375,312.3438 1618.7344,312.4375 1618.5156,312.75 L1618.3438,312.6719 Z " fill="#000000"/><text fill="#000000" font-family="sans-serif" font-size="12" lengthAdjust="spacing" textLength="47" x="1630" y="321.1543">Class10</text><line style="stroke:#A80036;stroke-width:1.5;" x1="1602" x2="1679" y1="333" y2="333"/><line style="stroke:#A80036;stroke-width:1.5;" x1="1602" x2="1679" y1="341" y2="341"/><!--MD5=[b4fa10df80476353258f72a232547d63]
class AbstractList--><rect codeLine="68" fill="#FEFECE" filter="url(#f6u0m6bu0x0tk)" height="48" id="AbstractList" style="stroke:#A80036;stroke-width:1.5;" width="104" x="183.5" y="301"/><ellipse cx="198.5" cy="317" fill="#A9DCDF" rx="11" ry="11" style="stroke:#A80036;stroke-width:1.0;"/><path d="M200.5781,318.8125 L200.9688,319.7969 L200.5781,319.7969 C200.125,319.7969 200.0156,319.8125 199.8594,319.9219 C199.6094,320.0781 199.4531,320.3594 199.4531,320.6563 C199.4531,320.9219 199.5938,321.1719 199.8125,321.3281 C199.9531,321.4531 200.1563,321.5 200.5781,321.5 L202.9375,321.5 C203.2969,321.5 203.5156,321.4688 203.6563,321.375 C203.9063,321.2344 204.0625,320.9375 204.0625,320.6563 C204.0625,320.375 203.9219,320.125 203.7031,319.9688 C203.5313,319.8281 203.375,319.7969 202.9063,319.7969 L199.5156,311.5938 L195.8438,311.5938 C195.3906,311.5938 195.2656,311.6094 195.1094,311.7031 C194.8594,311.875 194.7031,312.1563 194.7031,312.4375 C194.7031,312.7188 194.8438,312.9688 195.0625,313.1406 C195.2344,313.25 195.4063,313.2813 195.8438,313.2813 L196.9219,313.2813 L194.2813,319.7969 C193.8594,319.7969 193.7031,319.8125 193.5469,319.9219 C193.2969,320.0781 193.1406,320.3594 193.1406,320.6563 C193.1406,321.2188 193.5156,321.5 194.2656,321.5 L196.5313,321.5 C196.8906,321.5 197.1094,321.4688 197.2344,321.375 C197.5,321.2344 197.6406,320.9375 197.6406,320.6563 C197.6406,320.375 197.5156,320.125 197.2969,319.9531 C197.125,319.8281 196.9844,319.7969 196.5313,319.7969 L196.1406,319.7969 L196.5313,318.8125 L200.5781,318.8125 Z M199.875,317.1094 L197.2031,317.1094 L198.5469,313.8438 L199.875,317.1094 Z " fill="#000000"/><text fill="#000000" font-family="sans-serif" font-size="12" font-style="italic" lengthAdjust="spacing" textLength="72" x="212.5" y="321.1543">AbstractList</text><line style="stroke:#A80036;stroke-width:1.5;" x1="184.5" x2="286.5" y1="333" y2="333"/><line style="stroke:#A80036;stroke-width:1.5;" x1="184.5" x2="286.5" y1="341" y2="341"/><!--MD5=[8e34b16d8d8f96f4a11290cd523ed859]
class AbstractCollection--><rect codeLine="69" fill="#FEFECE" filter="url(#f6u0m6bu0x0tk)" height="48" id="AbstractCollection" style="stroke:#A80036;stroke-width:1.5;" width="141" x="7" y="301"/><ellipse cx="22" cy="317" fill="#A9DCDF" rx="11" ry="11" style="stroke:#A80036;stroke-width:1.0;"/><path d="M24.0781,318.8125 L24.4688,319.7969 L24.0781,319.7969 C23.625,319.7969 23.5156,319.8125 23.3594,319.9219 C23.1094,320.0781 22.9531,320.3594 22.9531,320.6563 C22.9531,320.9219 23.0938,321.1719 23.3125,321.3281 C23.4531,321.4531 23.6563,321.5 24.0781,321.5 L26.4375,321.5 C26.7969,321.5 27.0156,321.4688 27.1563,321.375 C27.4063,321.2344 27.5625,320.9375 27.5625,320.6563 C27.5625,320.375 27.4219,320.125 27.2031,319.9688 C27.0313,319.8281 26.875,319.7969 26.4063,319.7969 L23.0156,311.5938 L19.3438,311.5938 C18.8906,311.5938 18.7656,311.6094 18.6094,311.7031 C18.3594,311.875 18.2031,312.1563 18.2031,312.4375 C18.2031,312.7188 18.3438,312.9688 18.5625,313.1406 C18.7344,313.25 18.9063,313.2813 19.3438,313.2813 L20.4219,313.2813 L17.7813,319.7969 C17.3594,319.7969 17.2031,319.8125 17.0469,319.9219 C16.7969,320.0781 16.6406,320.3594 16.6406,320.6563 C16.6406,321.2188 17.0156,321.5 17.7656,321.5 L20.0313,321.5 C20.3906,321.5 20.6094,321.4688 20.7344,321.375 C21,321.2344 21.1406,320.9375 21.1406,320.6563 C21.1406,320.375 21.0156,320.125 20.7969,319.9531 C20.625,319.8281 20.4844,319.7969 20.0313,319.7969 L19.6406,319.7969 L20.0313,318.8125 L24.0781,318.8125 Z M23.375,317.1094 L20.7031,317.1094 L22.0469,313.8438 L23.375,317.1094 Z " fill="#000000"/><text fill="#000000" font-family="sans-serif" font-size="12" font-style="italic" lengthAdjust="spacing" textLength="109" x="36" y="321.1543">AbstractCollection</text><line style="stroke:#A80036;stroke-width:1.5;" x1="8" x2="147" y1="333" y2="333"/><line style="stroke:#A80036;stroke-width:1.5;" x1="8" x2="147" y1="341" y2="341"/><!--MD5=[3d4177ac58b4411586d067f34e84928f]
class List--><rect codeLine="70" fill="#FEFECE" filter="url(#f6u0m6bu0x0tk)" height="48" id="List" style="stroke:#A80036;stroke-width:1.5;" width="53" x="196" y="68.5"/><ellipse cx="211" cy="84.5" fill="#B4A7E5" rx="11" ry="11" style="stroke:#A80036;stroke-width:1.0;"/><path d="M211.9531,81.2813 L213.6719,81.2813 C214.0625,81.2813 214.25,81.25 214.375,81.1719 C214.6406,81.0156 214.7813,80.7344 214.7813,80.4375 C214.7813,80.1719 214.6719,79.9063 214.4375,79.7344 C214.2656,79.625 214.125,79.5938 213.6719,79.5938 L208.5313,79.5938 C208.0938,79.5938 207.9688,79.6094 207.8125,79.7031 C207.5625,79.8594 207.4063,80.1563 207.4063,80.4375 C207.4063,80.7188 207.5469,80.9688 207.7656,81.1406 C207.9219,81.25 208.1094,81.2813 208.5313,81.2813 L210.25,81.2813 L210.25,87.7969 L208.5313,87.7969 C208.0938,87.7969 207.9688,87.8125 207.8125,87.9219 C207.5625,88.0781 207.4063,88.3594 207.4063,88.6563 C207.4063,88.9063 207.5469,89.1719 207.7656,89.3281 C207.9219,89.4531 208.125,89.5 208.5313,89.5 L213.6719,89.5 C214.4219,89.5 214.7813,89.2188 214.7813,88.6563 C214.7813,88.375 214.6719,88.125 214.4375,87.9531 C214.2656,87.8281 214.125,87.7969 213.6719,87.7969 L211.9531,87.7969 L211.9531,81.2813 Z " fill="#000000"/><text fill="#000000" font-family="sans-serif" font-size="12" font-style="italic" lengthAdjust="spacing" textLength="21" x="225" y="88.6543">List</text><line style="stroke:#A80036;stroke-width:1.5;" x1="197" x2="248" y1="100.5" y2="100.5"/><line style="stroke:#A80036;stroke-width:1.5;" x1="197" x2="248" y1="108.5" y2="108.5"/><!--MD5=[c160724f8e3bb89ca8141a12554ac2e3]
class Collection--><rect codeLine="71" fill="#FEFECE" filter="url(#f6u0m6bu0x0tk)" height="48" id="Collection" style="stroke:#A80036;stroke-width:1.5;" width="90" x="57.5" y="68.5"/><ellipse cx="72.5" cy="84.5" fill="#B4A7E5" rx="11" ry="11" style="stroke:#A80036;stroke-width:1.0;"/><path d="M73.4531,81.2813 L75.1719,81.2813 C75.5625,81.2813 75.75,81.25 75.875,81.1719 C76.1406,81.0156 76.2813,80.7344 76.2813,80.4375 C76.2813,80.1719 76.1719,79.9063 75.9375,79.7344 C75.7656,79.625 75.625,79.5938 75.1719,79.5938 L70.0313,79.5938 C69.5938,79.5938 69.4688,79.6094 69.3125,79.7031 C69.0625,79.8594 68.9063,80.1563 68.9063,80.4375 C68.9063,80.7188 69.0469,80.9688 69.2656,81.1406 C69.4219,81.25 69.6094,81.2813 70.0313,81.2813 L71.75,81.2813 L71.75,87.7969 L70.0313,87.7969 C69.5938,87.7969 69.4688,87.8125 69.3125,87.9219 C69.0625,88.0781 68.9063,88.3594 68.9063,88.6563 C68.9063,88.9063 69.0469,89.1719 69.2656,89.3281 C69.4219,89.4531 69.625,89.5 70.0313,89.5 L75.1719,89.5 C75.9219,89.5 76.2813,89.2188 76.2813,88.6563 C76.2813,88.375 76.1719,88.125 75.9375,87.9531 C75.7656,87.8281 75.625,87.7969 75.1719,87.7969 L73.4531,87.7969 L73.4531,81.2813 Z " fill="#000000"/><text fill="#000000" font-family="sans-serif" font-size="12" font-style="italic" lengthAdjust="spacing" textLength="58" x="86.5" y="88.6543">Collection</text><line style="stroke:#A80036;stroke-width:1.5;" x1="58.5" x2="146.5" y1="100.5" y2="100.5"/><line style="stroke:#A80036;stroke-width:1.5;" x1="58.5" x2="146.5" y1="108.5" y2="108.5"/><!--MD5=[ab8871ed637f40707b866ba6597734bc]
class ArrayList--><rect codeLine="80" fill="#FEFECE" filter="url(#f6u0m6bu0x0tk)" height="73.6094" id="ArrayList" style="stroke:#A80036;stroke-width:1.5;" width="137" x="167" y="472"/><ellipse cx="205.85" cy="488" fill="#ADD1B2" rx="11" ry="11" style="stroke:#A80036;stroke-width:1.0;"/><path d="M208.1938,483.6719 C207.2563,483.2344 206.6625,483.0938 205.7875,483.0938 C203.1625,483.0938 201.1625,485.1719 201.1625,487.8906 L201.1625,489.0156 C201.1625,491.5938 203.2719,493.4844 206.1625,493.4844 C207.3813,493.4844 208.5375,493.1875 209.2875,492.6406 C209.8656,492.2344 210.1938,491.7813 210.1938,491.3906 C210.1938,490.9375 209.8031,490.5469 209.3344,490.5469 C209.1156,490.5469 208.9125,490.625 208.725,490.8125 C208.2719,491.2969 208.2719,491.2969 208.0844,491.3906 C207.6625,491.6563 206.975,491.7813 206.2094,491.7813 C204.1625,491.7813 202.8656,490.6875 202.8656,488.9844 L202.8656,487.8906 C202.8656,486.1094 204.1156,484.7969 205.85,484.7969 C206.4281,484.7969 207.0375,484.9531 207.5063,485.2031 C207.9906,485.4844 208.1625,485.7031 208.2563,486.1094 C208.3188,486.5156 208.35,486.6406 208.4906,486.7656 C208.6313,486.9063 208.8656,487.0156 209.0844,487.0156 C209.35,487.0156 209.6156,486.875 209.7875,486.6563 C209.8969,486.5 209.9281,486.3125 209.9281,485.8906 L209.9281,484.4688 C209.9281,484.0313 209.9125,483.9063 209.8188,483.75 C209.6625,483.4844 209.3813,483.3438 209.0844,483.3438 C208.7875,483.3438 208.5844,483.4375 208.3656,483.75 L208.1938,483.6719 Z " fill="#000000"/><text fill="#000000" font-family="sans-serif" font-size="12" lengthAdjust="spacing" textLength="52" x="225.15" y="492.1543">ArrayList</text><line style="stroke:#A80036;stroke-width:1.5;" x1="168" x2="303" y1="504" y2="504"/><text fill="#000000" font-family="sans-serif" font-size="11" lengthAdjust="spacing" textLength="125" x="173" y="518.2104">Object[] elementData</text><line style="stroke:#A80036;stroke-width:1.5;" x1="168" x2="303" y1="524.8047" y2="524.8047"/><text fill="#000000" font-family="sans-serif" font-size="11" lengthAdjust="spacing" textLength="32" x="173" y="539.0151">size()</text><!--MD5=[15b68e006199004da79ea2a4d117d8e9]
class TimeUnit--><rect codeLine="85" fill="#FEFECE" filter="url(#f6u0m6bu0x0tk)" height="86.4141" id="TimeUnit" style="stroke:#A80036;stroke-width:1.5;" width="84" x="619.5" y="282"/><ellipse cx="634.5" cy="298" fill="#EB937F" rx="11" ry="11" style="stroke:#A80036;stroke-width:1.0;"/><path d="M633.2969,298.875 L634.75,298.875 L634.75,298.9844 C634.75,299.3906 634.7813,299.5469 634.8594,299.7031 C635.0156,299.9531 635.2969,300.1094 635.5938,300.1094 C635.8438,300.1094 636.1094,299.9688 636.2656,299.75 C636.3906,299.5938 636.4219,299.4375 636.4219,298.9844 L636.4219,297.0625 C636.4219,296.9063 636.4219,296.8594 636.4063,296.7031 C636.3438,296.2344 636.0313,295.9219 635.5781,295.9219 C635.3281,295.9219 635.0625,296.0625 634.8906,296.2813 C634.7813,296.4531 634.75,296.6094 634.75,297.0625 L634.75,297.1875 L633.2969,297.1875 L633.2969,294.7813 L637.2813,294.7813 L637.2813,295.6406 C637.2813,296.0469 637.3125,296.2188 637.3906,296.375 C637.5625,296.625 637.8438,296.7813 638.125,296.7813 C638.3906,296.7813 638.6563,296.6406 638.8281,296.4219 C638.9375,296.25 638.9688,296.1094 638.9688,295.6406 L638.9688,293.0938 L631.3438,293.0938 C630.9063,293.0938 630.7813,293.1094 630.625,293.2031 C630.375,293.3594 630.2188,293.6563 630.2188,293.9375 C630.2188,294.2188 630.3594,294.4688 630.5781,294.6406 C630.7344,294.75 630.9219,294.7813 631.3438,294.7813 L631.5938,294.7813 L631.5938,301.2969 L631.3438,301.2969 C630.9375,301.2969 630.7813,301.3125 630.625,301.4219 C630.375,301.5938 630.2188,301.8594 630.2188,302.1563 C630.2188,302.4219 630.3594,302.6719 630.5781,302.8281 C630.7188,302.9531 630.9531,303 631.3438,303 L639.3438,303 L639.3438,300.4219 C639.3438,299.9844 639.3125,299.8438 639.2344,299.6875 C639.0625,299.4375 638.7813,299.2813 638.5,299.2813 C638.2344,299.2813 637.9688,299.3906 637.7969,299.6406 C637.6875,299.7969 637.6563,299.9375 637.6563,300.4219 L637.6563,301.2969 L633.2969,301.2969 L633.2969,298.875 Z " fill="#000000"/><text fill="#000000" font-family="sans-serif" font-size="12" lengthAdjust="spacing" textLength="52" x="648.5" y="302.1543">TimeUnit</text><line style="stroke:#A80036;stroke-width:1.5;" x1="620.5" x2="702.5" y1="314" y2="314"/><text fill="#000000" font-family="sans-serif" font-size="11" lengthAdjust="spacing" textLength="32" x="625.5" y="328.2104">DAYS</text><text fill="#000000" font-family="sans-serif" font-size="11" lengthAdjust="spacing" textLength="40" x="625.5" y="341.0151">HOURS</text><text fill="#000000" font-family="sans-serif" font-size="11" lengthAdjust="spacing" textLength="50" x="625.5" y="353.8198">MINUTES</text><line style="stroke:#A80036;stroke-width:1.5;" x1="620.5" x2="702.5" y1="360.4141" y2="360.4141"/><!--MD5=[0c8287f799745f7b534bf75518604c1e]
class SuppressWarnings--><rect codeLine="91" fill="#FEFECE" filter="url(#f6u0m6bu0x0tk)" height="48" id="SuppressWarnings" style="stroke:#A80036;stroke-width:1.5;" width="146" x="738.5" y="301"/><ellipse cx="753.5" cy="317" fill="#E3664A" rx="11" ry="11" style="stroke:#A80036;stroke-width:1.0;"/><path d="M754.4219,314.25 C752.5156,314.3906 751.2031,315.5781 751.2031,317.1563 C751.2031,318.5625 752.4063,319.7813 753.8594,319.7813 C754.0156,319.7813 754.1563,319.7656 754.4219,319.7188 L754.4219,319.7813 L755.2188,319.7813 C755.8438,319.7813 756.1563,319.5625 756.1563,319.0781 C756.1563,318.7969 756.0313,318.6094 755.7656,318.4844 L755.7656,313.7031 C755.7656,311.8125 754.4531,310.4531 752.6094,310.4531 C750.4063,310.4531 748.7969,312.5781 748.7969,315.5156 L748.7969,318.375 C748.7969,319.625 749.0781,320.8438 749.5938,321.7656 C750.3125,323.0156 751.2344,323.5781 752.6406,323.5781 C754.25,323.5781 755.6406,322.9219 755.6406,322.125 C755.6406,321.7344 755.3438,321.4219 754.9688,321.4219 C754.7656,321.4219 754.6719,321.4688 754.4375,321.7188 C754.1094,322.0469 753.4375,322.2656 752.6875,322.2656 C751.9375,322.2656 751.4063,322 751,321.4063 C750.4219,320.6094 750.1406,319.5625 750.1406,318.2656 L750.1406,315.6094 C750.1406,313.4375 751.2031,311.7969 752.6406,311.7969 C753.6875,311.7969 754.4219,312.5781 754.4219,313.7031 L754.4219,314.25 Z M754.4219,318.3594 C754.1875,318.4063 754.0938,318.4063 753.9844,318.4063 C753.1563,318.4063 752.5469,317.875 752.5469,317.1719 C752.5469,316.3438 753.2969,315.7344 754.4219,315.625 L754.4219,318.3594 Z " fill="#000000"/><text fill="#000000" font-family="sans-serif" font-size="12" lengthAdjust="spacing" textLength="114" x="767.5" y="321.1543">SuppressWarnings</text><line style="stroke:#A80036;stroke-width:1.5;" x1="739.5" x2="883.5" y1="333" y2="333"/><line style="stroke:#A80036;stroke-width:1.5;" x1="739.5" x2="883.5" y1="341" y2="341"/><!--MD5=[6c8c18b8d4fa3298c600fc3f82908513]
class Foo2--><!--MD5=[95174e42ee347a14b6cb78d6855f19b5]
class Element--><rect fill="#FEFECE" filter="url(#f6u0m6bu0x0tk)" height="48" id="Element" style="stroke:#A80036;stroke-width:1.5;" width="80" x="490.5" y="68.5"/><ellipse cx="505.5" cy="84.5" fill="#ADD1B2" rx="11" ry="11" style="stroke:#A80036;stroke-width:1.0;"/><path d="M507.8438,80.1719 C506.9063,79.7344 506.3125,79.5938 505.4375,79.5938 C502.8125,79.5938 500.8125,81.6719 500.8125,84.3906 L500.8125,85.5156 C500.8125,88.0938 502.9219,89.9844 505.8125,89.9844 C507.0313,89.9844 508.1875,89.6875 508.9375,89.1406 C509.5156,88.7344 509.8438,88.2813 509.8438,87.8906 C509.8438,87.4375 509.4531,87.0469 508.9844,87.0469 C508.7656,87.0469 508.5625,87.125 508.375,87.3125 C507.9219,87.7969 507.9219,87.7969 507.7344,87.8906 C507.3125,88.1563 506.625,88.2813 505.8594,88.2813 C503.8125,88.2813 502.5156,87.1875 502.5156,85.4844 L502.5156,84.3906 C502.5156,82.6094 503.7656,81.2969 505.5,81.2969 C506.0781,81.2969 506.6875,81.4531 507.1563,81.7031 C507.6406,81.9844 507.8125,82.2031 507.9063,82.6094 C507.9688,83.0156 508,83.1406 508.1406,83.2656 C508.2813,83.4063 508.5156,83.5156 508.7344,83.5156 C509,83.5156 509.2656,83.375 509.4375,83.1563 C509.5469,83 509.5781,82.8125 509.5781,82.3906 L509.5781,80.9688 C509.5781,80.5313 509.5625,80.4063 509.4688,80.25 C509.3125,79.9844 509.0313,79.8438 508.7344,79.8438 C508.4375,79.8438 508.2344,79.9375 508.0156,80.25 L507.8438,80.1719 Z " fill="#000000"/><text fill="#000000" font-family="sans-serif" font-size="12" lengthAdjust="spacing" textLength="48" x="519.5" y="88.6543">Element</text><line style="stroke:#A80036;stroke-width:1.5;" x1="491.5" x2="569.5" y1="100.5" y2="100.5"/><line style="stroke:#A80036;stroke-width:1.5;" x1="491.5" x2="569.5" y1="108.5" y2="108.5"/><!--MD5=[3ab52052fd7925c5f64fca5d41d6866e]
reverse link Class01 to Class02--><path codeLine="59" d="M1180.5,136.996 C1180.5,185.666 1180.5,262.689 1180.5,300.911 " fill="none" id="Class01-backto-Class02" style="stroke:#A80036;stroke-width:1.0;"/><polygon fill="none" points="1173.5,136.87,1180.5,116.87,1187.5,136.87,1173.5,136.87" style="stroke:#A80036;stroke-width:1.0;"/><!--MD5=[0815ca07f8d628dc1a46a48ef0cd4c01]
reverse link Class03 to Class04--><path codeLine="60" d="M1295.5,129.978 C1295.5,177.938 1295.5,260.796 1295.5,300.911 " fill="none" id="Class03-backto-Class04" style="stroke:#A80036;stroke-width:1.0;"/><polygon fill="#A80036" points="1295.5,116.87,1291.5,122.87,1295.5,128.87,1299.5,122.87,1295.5,116.87" style="stroke:#A80036;stroke-width:1.0;"/><!--MD5=[07ec844cc9d193d99f69abe09e63aa9e]
reverse link Class05 to Class06--><path codeLine="61" d="M1410.5,129.978 C1410.5,177.938 1410.5,260.796 1410.5,300.911 " fill="none" id="Class05-backto-Class06" style="stroke:#A80036;stroke-width:1.0;"/><polygon fill="#FFFFFF" points="1410.5,116.87,1406.5,122.87,1410.5,128.87,1414.5,122.87,1410.5,116.87" style="stroke:#A80036;stroke-width:1.0;"/><!--MD5=[cd6c6022d9f7be31b268d5c573778c45]
link Class07 to Class08--><path codeLine="62" d="M1525.5,116.87 C1525.5,161.163 1525.5,256.836 1525.5,300.911 " fill="none" id="Class07-Class08" style="stroke:#A80036;stroke-width:1.0;stroke-dasharray:7.0,7.0;"/><!--MD5=[012abb55b9b004b4a603a60db8edb83a]
link Class09 to Class10--><path codeLine="63" d="M1640.5,116.87 C1640.5,161.163 1640.5,256.836 1640.5,300.911 " fill="none" id="Class09-Class10" style="stroke:#A80036;stroke-width:1.0;"/><!--MD5=[00308d07b6a5721fb0cf5861877e6652]
reverse link List to AbstractList--><path codeLine="73" d="M224.953,136.996 C227.698,185.666 232.042,262.689 234.198,300.911 " fill="none" id="List-backto-AbstractList" style="stroke:#A80036;stroke-width:1.0;"/><polygon fill="none" points="217.955,137.233,223.818,116.87,231.933,136.444,217.955,137.233" style="stroke:#A80036;stroke-width:1.0;"/><!--MD5=[1822909749df1453bdd84de7a60a3406]
reverse link Collection to AbstractCollection--><path codeLine="74" d="M97.7825,136.996 C92.5037,185.666 84.1497,262.689 80.0043,300.911 " fill="none" id="Collection-backto-AbstractCollection" style="stroke:#A80036;stroke-width:1.0;"/><polygon fill="none" points="90.8495,135.999,99.9653,116.87,104.7678,137.508,90.8495,135.999" style="stroke:#A80036;stroke-width:1.0;"/><!--MD5=[0159284274f96a472eb2618ad803aaca]
reverse link Collection to List--><path codeLine="76" d="M168.112,92.5 C177.313,92.5 186.514,92.5 195.715,92.5 " fill="none" id="Collection-backto-List" style="stroke:#A80036;stroke-width:1.0;"/><polygon fill="none" points="167.969,99.5,147.969,92.5,167.969,85.5,167.969,99.5" style="stroke:#A80036;stroke-width:1.0;"/><!--MD5=[7a3a52e8f65ef1a8d8d29530ea5cd870]
reverse link AbstractCollection to AbstractList--><path codeLine="77" d="M168.207,325 C173.24,325 178.273,325 183.305,325 " fill="none" id="AbstractCollection-backto-AbstractList" style="stroke:#A80036;stroke-width:1.0;"/><polygon fill="none" points="168.168,332,148.168,325,168.168,318,168.168,332" style="stroke:#A80036;stroke-width:1.0;"/><!--MD5=[40e4bb1af59cca28d4643aaff05088cc]
reverse link AbstractList to ArrayList--><path codeLine="78" d="M235.5,369.227 C235.5,400.564 235.5,442.451 235.5,471.9815 " fill="none" id="AbstractList-backto-ArrayList" style="stroke:#A80036;stroke-width:1.0;"/><polygon fill="none" points="228.5,369.05,235.5,349.05,242.5,369.05,228.5,369.05" style="stroke:#A80036;stroke-width:1.0;"/><!--MD5=[030293e57decd6f37a46863902556d9b]
reverse link Foo2 to Foo1--><!--MD5=[1d3323b51c92ad2499afdb564f3833d0]
reverse link Foo to Element--><path codeLine="107" d="M468.297,92.5 C475.667,92.5 483.037,92.5 490.407,92.5 " fill="none" id="Foo-backto-Element" style="stroke:#A80036;stroke-width:1.0;"/><polygon fill="#A80036" points="455.031,92.5,461.031,96.5,467.031,92.5,461.031,88.5,455.031,92.5" style="stroke:#A80036;stroke-width:1.0;"/><!--MD5=[64b55e91ac8968e1ea4319ed27881c96]
link Dummy to User--><!--MD5=[08e8a5591921cf46bd5bce1e6546e76a]
link Dummy to TimeUnit--><!--MD5=[15ba339f95e55e255aeb8f9acd97a0d0]
link TimeUnit to SuppressWarnings--><!--MD5=[91dde2d08f2327ecf51e839f128771c3]
@startuml
class Foo {
  String data
  void methods()
}




class Dummy {
 -field1
 #field2
 ~method1()
 +method2()
}





class Dummy {
  {static} String id
  {abstract} void methods()
}




class Foo1 {
  You can use
  several lines
  ..
  as you want
  and group
  ==
  things together.
  __
  You can have as many groups
  as you want
  - -
  End of class
}

class User {
  .. Simple Getter ..
  + getName()
  + getAddress()
  .. Some setter ..
  + setName()
  __ private data __
  int age
  - - encrypted - -
  String password
}





Class01 <|- - Class02
Class03 *- - Class04
Class05 o- - Class06
Class07 .. Class08
Class09 - - Class10




abstract class AbstractList
abstract AbstractCollection
interface List
interface Collection

List <|- - AbstractList
Collection <|- - AbstractCollection

Collection <|- List
AbstractCollection <|- AbstractList
AbstractList <|- - ArrayList

class ArrayList {
  Object[] elementData
  size()
}

enum TimeUnit {
  DAYS
  HOURS
  MINUTES
}

annotation SuppressWarnings




class Foo1
class Foo2
Foo2 *- - Foo1
hide Foo2




class Foo<? extends Element> {
  int size()
}
Foo *- Element
@enduml

PlantUML version 1.2021.7(Sun May 23 12:40:07 UTC 2021)
(GPL source distribution)
Java Runtime: Java(TM) SE Runtime Environment
JVM: Java HotSpot(TM) 64-Bit Server VM
Default Encoding: UTF-8
Language: en
Country: US
--></g></svg>