<?xml version="1.0" encoding="UTF-8" standalone="no"?><svg xmlns="http://www.w3.org/2000/svg" xmlns:xlink="http://www.w3.org/1999/xlink" contentScriptType="application/ecmascript" contentStyleType="text/css" height="895px" preserveAspectRatio="none" style="width:796px;height:895px;background:#FFFFFF;" version="1.1" viewBox="0 0 796 895" width="796px" zoomAndPan="magnify"><defs><filter height="300%" id="f11jzqqmu8nouj" width="300%" x="-1" y="-1"><feGaussianBlur result="blurOut" stdDeviation="2.0"/><feColorMatrix in="blurOut" result="blurOut2" type="matrix" values="0 0 0 0 0 0 0 0 0 0 0 0 0 0 0 0 0 0 .4 0"/><feOffset dx="4.0" dy="4.0" in="blurOut2" result="blurOut3"/><feBlend in="SourceGraphic" in2="blurOut3" mode="normal"/></filter></defs><g><!--MD5=[111002b242a260edbcaabc3e471064d0]
cluster checkout--><rect fill="#FFFFFF" filter="url(#f11jzqqmu8nouj)" height="244" style="stroke:#000000;stroke-width:1.5;" width="152" x="131.5" y="354"/><text fill="#000000" font-family="sans-serif" font-size="14" font-weight="bold" lengthAdjust="spacing" textLength="74" x="170.5" y="368.9951">checkout</text><ellipse cx="207.5664" cy="485.7722" fill="#FEFECE" filter="url(#f11jzqqmu8nouj)" rx="60.0664" ry="14.7722" style="stroke:#A80036;stroke-width:1.5;"/><text fill="#000000" font-family="sans-serif" font-size="14" lengthAdjust="spacing" textLength="67" x="171.0664" y="489.5198">checkout</text><ellipse cx="207.5731" cy="403.7619" fill="#FEFECE" filter="url(#f11jzqqmu8nouj)" rx="58.5731" ry="14.7619" style="stroke:#A80036;stroke-width:1.5;"/><text fill="#000000" font-family="sans-serif" font-size="14" lengthAdjust="spacing" textLength="65" x="172.0731" y="407.5095">payment</text><ellipse cx="207.6191" cy="567.026" fill="#FEFECE" filter="url(#f11jzqqmu8nouj)" rx="34.1191" ry="14.526" style="stroke:#A80036;stroke-width:1.5;"/><text fill="#000000" font-family="sans-serif" font-size="14" lengthAdjust="spacing" textLength="32" x="191.1725" y="570.0381">help</text><!--MD5=[9d3ca2edc78b2fd8c3bd75c02986111b]
entity M1--><ellipse cx="40" cy="339" fill="#FEFECE" filter="url(#f11jzqqmu8nouj)" rx="8" ry="8" style="stroke:#A80036;stroke-width:1.5;"/><path d="M40,347 L40,374 M27,355 L53,355 M40,374 L27,389 M40,374 L53,389 " fill="none" filter="url(#f11jzqqmu8nouj)" style="stroke:#A80036;stroke-width:1.5;"/><text fill="#000000" font-family="sans-serif" font-size="14" lengthAdjust="spacing" textLength="21" x="29.5" y="407.4951">M1</text><!--MD5=[337636605fd75d21901d5b457bca3a06]
entity M2--><ellipse cx="40" cy="223" fill="#FEFECE" filter="url(#f11jzqqmu8nouj)" rx="8" ry="8" style="stroke:#A80036;stroke-width:1.5;"/><path d="M40,231 L40,258 M27,239 L53,239 M40,258 L27,273 M40,258 L53,273 " fill="none" filter="url(#f11jzqqmu8nouj)" style="stroke:#A80036;stroke-width:1.5;"/><text fill="#000000" font-family="sans-serif" font-size="14" lengthAdjust="spacing" textLength="20" x="30" y="291.4951">M2</text><!--MD5=[c5b2694c86302986aa03507df444f4f8]
entity 海绵--><ellipse cx="207.5" cy="14" fill="#FEFECE" filter="url(#f11jzqqmu8nouj)" rx="8" ry="8" style="stroke:#A80036;stroke-width:1.5;"/><path d="M207.5,22 L207.5,49 M194.5,30 L220.5,30 M207.5,49 L194.5,64 M207.5,49 L220.5,64 " fill="none" filter="url(#f11jzqqmu8nouj)" style="stroke:#A80036;stroke-width:1.5;"/><text fill="#000000" font-family="sans-serif" font-size="14" lengthAdjust="spacing" textLength="28" x="193.5" y="82.4951">海绵</text><ellipse cx="463.3543" cy="92.2084" fill="#FEFECE" filter="url(#f11jzqqmu8nouj)" rx="51.8543" ry="14.7084" style="stroke:#A80036;stroke-width:1.5;"/><text fill="#000000" font-family="sans-serif" font-size="14" lengthAdjust="spacing" textLength="56" x="432.3543" y="95.956">排队打饭</text><!--MD5=[1d2074ca340af99456fcb095f6b83f7d]
entity 展昭--><ellipse cx="40" cy="107" fill="#FEFECE" filter="url(#f11jzqqmu8nouj)" rx="8" ry="8" style="stroke:#A80036;stroke-width:1.5;"/><path d="M40,115 L40,142 M27,123 L53,123 M40,142 L27,157 M40,142 L53,157 " fill="none" filter="url(#f11jzqqmu8nouj)" style="stroke:#A80036;stroke-width:1.5;"/><text fill="#000000" font-family="sans-serif" font-size="14" lengthAdjust="spacing" textLength="28" x="26" y="175.4951">展昭</text><!--MD5=[97ab183161fd5d1db7fba7485cf76add]
entity Admin--><ellipse cx="207.5" cy="692" fill="#FEFECE" filter="url(#f11jzqqmu8nouj)" rx="8" ry="8" style="stroke:#A80036;stroke-width:1.5;"/><path d="M207.5,700 L207.5,727 M194.5,708 L220.5,708 M207.5,727 L194.5,742 M207.5,727 L220.5,742 " fill="none" filter="url(#f11jzqqmu8nouj)" style="stroke:#A80036;stroke-width:1.5;"/><text fill="#000000" font-family="sans-serif" font-size="14" lengthAdjust="spacing" textLength="83" x="166" y="760.4951">Main Admin</text><ellipse cx="695.7915" cy="723.1583" fill="#FEFECE" filter="url(#f11jzqqmu8nouj)" rx="88.7915" ry="20.1583" style="stroke:#A80036;stroke-width:1.5;"/><text fill="#000000" font-family="sans-serif" font-size="14" lengthAdjust="spacing" textLength="139" x="626.2915" y="726.005">Use the application</text><!--MD5=[fee662a292a0353a69bd162820bae93b]
entity User--><ellipse cx="40" cy="692" fill="#FEFECE" filter="url(#f11jzqqmu8nouj)" rx="8" ry="8" style="stroke:#A80036;stroke-width:1.5;"/><path d="M40,700 L40,727 M27,708 L53,708 M40,727 L27,742 M40,727 L53,742 " fill="none" filter="url(#f11jzqqmu8nouj)" style="stroke:#A80036;stroke-width:1.5;"/><text fill="#000000" font-family="sans-serif" font-size="14" lengthAdjust="spacing" textLength="31" x="24.5" y="760.4951">User</text><ellipse cx="207.7231" cy="633.0485" fill="#FEFECE" filter="url(#f11jzqqmu8nouj)" rx="37.7231" ry="14.5485" style="stroke:#A80036;stroke-width:1.5;"/><text fill="#000000" font-family="sans-serif" font-size="14" lengthAdjust="spacing" textLength="37" x="187.6116" y="636.4312">Start</text><path d="M135,798.4999 L135,823.6327 A0,0 0 0 0 135,823.6327 L280,823.6327 A0,0 0 0 0 280,823.6327 L280,808.4999 L270,798.4999 L211.5,798.4999 L207.5,763.5812 L203.5,798.4999 L135,798.4999 A0,0 0 0 0 135,798.4999 " fill="#FBFB77" filter="url(#f11jzqqmu8nouj)" style="stroke:#A80036;stroke-width:1.0;"/><path d="M270,798.4999 L270,808.4999 L280,808.4999 L270,798.4999 " fill="#FBFB77" style="stroke:#A80036;stroke-width:1.0;"/><text fill="#000000" font-family="sans-serif" font-size="13" lengthAdjust="spacing" textLength="124" x="141" y="815.5668">This is an example.</text><path d="M625.5,777.9999 L625.5,818.2655 A0,0 0 0 0 625.5,818.2655 L766.5,818.2655 A0,0 0 0 0 766.5,818.2655 L766.5,787.9999 L756.5,777.9999 L700,777.9999 L696,743.116 L692,777.9999 L625.5,777.9999 A0,0 0 0 0 625.5,777.9999 " fill="#FBFB77" filter="url(#f11jzqqmu8nouj)" style="stroke:#A80036;stroke-width:1.0;"/><path d="M756.5,777.9999 L756.5,787.9999 L766.5,787.9999 L756.5,777.9999 " fill="#FBFB77" style="stroke:#A80036;stroke-width:1.0;"/><text fill="#000000" font-family="sans-serif" font-size="13" lengthAdjust="spacing" textLength="99" x="631.5" y="795.0668">A note can also</text><text fill="#000000" font-family="sans-serif" font-size="13" lengthAdjust="spacing" textLength="120" x="631.5" y="810.1996">be on several lines</text><path d="M381,659 L381,699.2656 L546,699.2656 L546,669 L536,659 L381,659 " fill="#FBFB77" filter="url(#f11jzqqmu8nouj)" style="stroke:#A80036;stroke-width:1.0;"/><path d="M536,659 L536,669 L546,669 L536,659 " fill="#FBFB77" style="stroke:#A80036;stroke-width:1.0;"/><text fill="#000000" font-family="sans-serif" font-size="13" lengthAdjust="spacing" textLength="144" x="387" y="676.0669">This note is connected</text><text fill="#000000" font-family="sans-serif" font-size="13" lengthAdjust="spacing" textLength="118" x="387" y="691.1997">to several objects.</text><!--MD5=[92848cbaf65985a669855153c5362c37]
entity customer--><ellipse cx="40" cy="455" fill="#FEFECE" filter="url(#f11jzqqmu8nouj)" rx="8" ry="8" style="stroke:#A80036;stroke-width:1.5;"/><path d="M40,463 L40,490 M27,471 L53,471 M40,490 L27,505 M40,490 L53,505 " fill="none" filter="url(#f11jzqqmu8nouj)" style="stroke:#A80036;stroke-width:1.5;"/><text fill="#000000" font-family="sans-serif" font-size="14" lengthAdjust="spacing" textLength="68" x="6" y="523.4951">customer</text><!--MD5=[ebeabf449828f4e0b33bbb47961e644b]
entity clerk--><ellipse cx="463.5" cy="455" fill="#FEFECE" filter="url(#f11jzqqmu8nouj)" rx="8" ry="8" style="stroke:#A80036;stroke-width:1.5;"/><path d="M463.5,463 L463.5,490 M450.5,471 L476.5,471 M463.5,490 L450.5,505 M463.5,490 L476.5,505 " fill="none" filter="url(#f11jzqqmu8nouj)" style="stroke:#A80036;stroke-width:1.5;"/><text fill="#000000" font-family="sans-serif" font-size="14" lengthAdjust="spacing" textLength="36" x="445.5" y="523.4951">clerk</text><!--MD5=[0fc3b363af0d70d8b0003e151f5ae10f]
link 海绵 to 排队打饭--><path d="M222.156,47.527 C257.765,54.116 354.794,72.07 414.111,83.046 " fill="none" id="海绵-to-排队打饭" style="stroke:#A80036;stroke-width:1.0;"/><polygon fill="#A80036" points="419.376,84.02,411.2545,78.4486,414.4595,83.1099,409.7982,86.3149,419.376,84.02" style="stroke:#A80036;stroke-width:1.0;"/><text fill="#000000" font-family="sans-serif" font-size="13" lengthAdjust="spacing" textLength="39" x="311" y="61.0669">开饭啦</text><!--MD5=[46fd00f66162b372e06ec61aef5fea3a]
link 展昭 to 排队打饭--><path d="M54.6177,137.455 C92.3541,135.853 201.429,130.588 291.5,120 C333.503,115.062 380.943,107.103 415.182,100.931 " fill="none" id="展昭-to-排队打饭" style="stroke:#A80036;stroke-width:1.0;"/><polygon fill="#A80036" points="420.135,100.034,410.5661,97.7026,415.2151,100.9254,411.9923,105.5745,420.135,100.034" style="stroke:#A80036;stroke-width:1.0;"/><text fill="#000000" font-family="sans-serif" font-size="13" lengthAdjust="spacing" textLength="91" x="162" y="116.0669">这位离得比较远</text><!--MD5=[933987b91d2b08b1b4941f3221fa6cec]
reverse link User to Admin--><path d="M75.7567,723 C102.0019,723 138.091,723 165.704,723 " fill="none" id="User-backto-Admin" style="stroke:#A80036;stroke-width:1.0;"/><polygon fill="none" points="75.6871,730,55.687,723,75.687,716,75.6871,730" style="stroke:#A80036;stroke-width:1.0;"/><!--MD5=[2cb1453f0b23e2ba7216b1bf4a67bc96]
reverse link Start to Use--><path d="M263.026,625.962 C330.83,619.085 449.421,613.257 546,641 C592.4,654.329 640.308,684.08 668.872,703.84 " fill="none" id="Start-backto-Use" style="stroke:#A80036;stroke-width:1.0;"/><polygon fill="none" points="263.538,632.948,242.889,628.19,261.998,619.033,263.538,632.948" style="stroke:#A80036;stroke-width:1.0;"/><!--MD5=[f4b2be5085d6f52f3a0e36c62efcf3ad]
link User to Start--><path d="M55.7852,710.919 C71.762,698.279 98.3245,678.44 123.5,665 C139.303,656.563 157.827,649.202 173.36,643.674 " fill="none" id="User-to-Start" style="stroke:#A80036;stroke-width:1.0;"/><polygon fill="#A80036" points="178.079,642.018,168.2622,641.2235,173.361,643.6735,170.911,648.7723,178.079,642.018" style="stroke:#A80036;stroke-width:1.0;"/><!--MD5=[9b1e83a301d632e8d5a1d64f176fc1f5]
link User to Use--><path d="M55.5441,760.0107 C68.6998,787.8812 91.0237,824.0792 123.5,840.9999 C214.889,888.6151 521.917,786.0424 644.16,741.908 " fill="none" id="User-to-Use" style="stroke:#A80036;stroke-width:1.0;"/><polygon fill="#A80036" points="649.136,740.107,639.3119,739.4084,644.4344,741.8085,642.0343,746.9309,649.136,740.107" style="stroke:#A80036;stroke-width:1.0;"/><!--MD5=[eedd4bf29063d6184eb2b121c1f53f26]
link Admin to Use--><path d="M249.142,723 C326.249,723 495.554,723 601.923,723 " fill="none" id="Admin-to-Use" style="stroke:#A80036;stroke-width:1.0;"/><polygon fill="#A80036" points="606.94,723,597.94,719,601.94,723,597.94,727,606.94,723" style="stroke:#A80036;stroke-width:1.0;"/><!--MD5=[18a852dfe38659cca840945dc1aef57a]
link Start to N2--><path d="M241.706,639.014 C276.871,645.382 333.711,655.676 380.912,664.224 " fill="none" id="Start-N2" style="stroke:#A80036;stroke-width:1.0;stroke-dasharray:7.0,7.0;"/><!--MD5=[582b4f0da0cf139d0f490575cc867c3a]
link N2 to Use--><path d="M546.09,694.575 C572.769,699.667 602.085,705.263 627.598,710.133 " fill="none" id="N2-Use" style="stroke:#A80036;stroke-width:1.0;stroke-dasharray:7.0,7.0;"/><!--MD5=[852381a7bb976b86080137fb6d718ea9]
link customer to checkout--><path d="M74.0936,486 C95.035,486 122.709,486 147.34,486 " fill="none" id="customer-checkout" style="stroke:#A80036;stroke-width:1.0;"/><!--MD5=[3ad5c6d5c608bfd6b87dc9c07c40a15f]
link checkout to payment--><path d="M207.5,470.96 C207.5,457.865 207.5,438.768 207.5,424.317 " fill="none" id="checkout-to-payment" style="stroke:#A80036;stroke-width:1.0;stroke-dasharray:7.0,7.0;"/><polygon fill="#A80036" points="207.5,419.222,203.5,428.222,207.5,424.222,211.5,428.222,207.5,419.222" style="stroke:#A80036;stroke-width:1.0;"/><text fill="#000000" font-family="sans-serif" font-size="13" lengthAdjust="spacing" textLength="45" x="173.5" y="449.5669">include</text><!--MD5=[739e7928149c8fe27c2b5850560351c7]
link help to checkout--><path d="M207.5,552.143 C207.5,539.208 207.5,520.344 207.5,506.069 " fill="none" id="help-to-checkout" style="stroke:#A80036;stroke-width:1.0;stroke-dasharray:7.0,7.0;"/><polygon fill="#A80036" points="207.5,501.037,203.5,510.037,207.5,506.037,211.5,510.037,207.5,501.037" style="stroke:#A80036;stroke-width:1.0;"/><text fill="#000000" font-family="sans-serif" font-size="13" lengthAdjust="spacing" textLength="52" x="170" y="531.3169">extends</text><!--MD5=[b4c4ee8f2d94c159d2b9e04bd372cbe0]
link checkout to clerk--><path d="M267.731,486 C325.488,486 409.691,486 445.436,486 " fill="none" id="checkout-clerk" style="stroke:#A80036;stroke-width:1.0;"/><!--MD5=[46e957c8be11f8e900a587304a1c8073]
@startuml
actor M1
actor M2




海绵 - -> (排队打饭) : 开饭啦
展昭 - - -> (排队打饭) : 这位离得比较远




:Main Admin: as Admin
(Use the application) as (Use)

User <|- - Admin
(Start) <|- - (Use)




:Main Admin: as Admin
(Use the application) as (Use)

User -> (Start)
User - -> (Use)
Admin - - -> (Use)

note right of Admin : This is an example.
note right of (Use)
  A note can also
  be on several lines
end note
note "This note is connected\nto several objects." as N2
(Start) .. N2
N2 .. (Use)





left to right direction
skinparam packageStyle rectangle
actor customer
actor clerk
rectangle checkout {
  customer - - (checkout)
  (checkout) .> (payment) : include
  (help) .> (checkout) : extends
  (checkout) - - clerk
}
@enduml

PlantUML version 1.2021.7(Sun May 23 12:40:07 UTC 2021)
(GPL source distribution)
Java Runtime: Java(TM) SE Runtime Environment
JVM: Java HotSpot(TM) 64-Bit Server VM
Default Encoding: UTF-8
Language: en
Country: US
--></g></svg>