<?xml version="1.0" encoding="UTF-8" standalone="no"?><svg xmlns="http://www.w3.org/2000/svg" xmlns:xlink="http://www.w3.org/1999/xlink" contentScriptType="application/ecmascript" contentStyleType="text/css" height="1033px" preserveAspectRatio="none" style="width:1520px;height:1033px;background:#FFFFFF;" version="1.1" viewBox="0 0 1520 1033" width="1520px" zoomAndPan="magnify"><defs><filter height="300%" id="f1julvlqccfwkt" width="300%" x="-1" y="-1"><feGaussianBlur result="blurOut" stdDeviation="2.0"/><feColorMatrix in="blurOut" result="blurOut2" type="matrix" values="0 0 0 0 0 0 0 0 0 0 0 0 0 0 0 0 0 0 .4 0"/><feOffset dx="4.0" dy="4.0" in="blurOut2" result="blurOut3"/><feBlend in="SourceGraphic" in2="blurOut3" mode="normal"/></filter></defs><g><rect fill="#FFFFFF" filter="url(#f1julvlqccfwkt)" height="145.6641" style="stroke:#A80036;stroke-width:1.0;" width="10" x="994" y="785.8203"/><rect fill="#FFFFFF" filter="url(#f1julvlqccfwkt)" height="87.3984" style="stroke:#A80036;stroke-width:1.0;" width="10" x="1278" y="814.9531"/><rect fill="#FFFFFF" filter="url(#f1julvlqccfwkt)" height="29.1328" style="stroke:#A80036;stroke-width:1.0;" width="10" x="1491" y="844.0859"/><line style="stroke:#A80036;stroke-width:1.0;stroke-dasharray:5.0,5.0;" x1="29" x2="29" y1="88.2969" y2="949.4844"/><line style="stroke:#A80036;stroke-width:1.0;stroke-dasharray:5.0,5.0;" x1="130.5" x2="130.5" y1="88.2969" y2="949.4844"/><line style="stroke:#A80036;stroke-width:1.0;stroke-dasharray:5.0,5.0;" x1="182.5" x2="182.5" y1="88.2969" y2="949.4844"/><line style="stroke:#A80036;stroke-width:1.0;stroke-dasharray:5.0,5.0;" x1="226.5" x2="226.5" y1="88.2969" y2="949.4844"/><line style="stroke:#A80036;stroke-width:1.0;stroke-dasharray:5.0,5.0;" x1="277.5" x2="277.5" y1="88.2969" y2="949.4844"/><line style="stroke:#A80036;stroke-width:1.0;stroke-dasharray:5.0,5.0;" x1="336.5" x2="336.5" y1="88.2969" y2="949.4844"/><line style="stroke:#A80036;stroke-width:1.0;stroke-dasharray:5.0,5.0;" x1="394.5" x2="394.5" y1="88.2969" y2="949.4844"/><line style="stroke:#A80036;stroke-width:1.0;stroke-dasharray:5.0,5.0;" x1="759.5" x2="759.5" y1="88.2969" y2="949.4844"/><line style="stroke:#A80036;stroke-width:1.0;stroke-dasharray:5.0,5.0;" x1="820.5" x2="820.5" y1="88.2969" y2="949.4844"/><line style="stroke:#A80036;stroke-width:1.0;stroke-dasharray:5.0,5.0;" x1="999" x2="999" y1="88.2969" y2="949.4844"/><line style="stroke:#A80036;stroke-width:1.0;stroke-dasharray:5.0,5.0;" x1="1283" x2="1283" y1="88.2969" y2="949.4844"/><line style="stroke:#A80036;stroke-width:1.0;stroke-dasharray:5.0,5.0;" x1="1496" x2="1496" y1="88.2969" y2="949.4844"/><text fill="#000000" font-family="sans-serif" font-size="14" lengthAdjust="spacing" textLength="42" x="5" y="84.9951">参与者</text><ellipse cx="29" cy="15" fill="#FEFECE" filter="url(#f1julvlqccfwkt)" rx="8" ry="8" style="stroke:#A80036;stroke-width:2.0;"/><path d="M29,23 L29,50 M16,31 L42,31 M29,50 L16,65 M29,50 L42,65 " fill="none" filter="url(#f1julvlqccfwkt)" style="stroke:#A80036;stroke-width:2.0;"/><text fill="#000000" font-family="sans-serif" font-size="14" lengthAdjust="spacing" textLength="42" x="5" y="961.4795">参与者</text><ellipse cx="29" cy="974.7813" fill="#FEFECE" filter="url(#f1julvlqccfwkt)" rx="8" ry="8" style="stroke:#A80036;stroke-width:2.0;"/><path d="M29,982.7813 L29,1009.7813 M16,990.7813 L42,990.7813 M29,1009.7813 L16,1024.7813 M29,1009.7813 L42,1024.7813 " fill="none" filter="url(#f1julvlqccfwkt)" style="stroke:#A80036;stroke-width:2.0;"/><text fill="#000000" font-family="sans-serif" font-size="14" lengthAdjust="spacing" textLength="28" x="114" y="84.9951">限制</text><path d="M110.5,44 L110.5,68 M110.5,56 L127.5,56 " fill="none" filter="url(#f1julvlqccfwkt)" style="stroke:#A80036;stroke-width:2.0;"/><ellipse cx="139.5" cy="56" fill="#FEFECE" filter="url(#f1julvlqccfwkt)" rx="12" ry="12" style="stroke:#A80036;stroke-width:2.0;"/><text fill="#000000" font-family="sans-serif" font-size="14" lengthAdjust="spacing" textLength="28" x="114" y="961.4795">限制</text><path d="M110.5,968.7813 L110.5,992.7813 M110.5,980.7813 L127.5,980.7813 " fill="none" filter="url(#f1julvlqccfwkt)" style="stroke:#A80036;stroke-width:2.0;"/><ellipse cx="139.5" cy="980.7813" fill="#FEFECE" filter="url(#f1julvlqccfwkt)" rx="12" ry="12" style="stroke:#A80036;stroke-width:2.0;"/><text fill="#000000" font-family="sans-serif" font-size="14" lengthAdjust="spacing" textLength="28" x="165.5" y="84.9951">控制</text><ellipse cx="182.5" cy="56" fill="#FEFECE" filter="url(#f1julvlqccfwkt)" rx="12" ry="12" style="stroke:#A80036;stroke-width:2.0;"/><polygon fill="#A80036" points="178.5,44,184.5,39,182.5,44,184.5,49,178.5,44" style="stroke:#A80036;stroke-width:1.0;"/><text fill="#000000" font-family="sans-serif" font-size="14" lengthAdjust="spacing" textLength="28" x="165.5" y="961.4795">控制</text><ellipse cx="182.5" cy="980.7813" fill="#FEFECE" filter="url(#f1julvlqccfwkt)" rx="12" ry="12" style="stroke:#A80036;stroke-width:2.0;"/><polygon fill="#A80036" points="178.5,968.7813,184.5,963.7813,182.5,968.7813,184.5,973.7813,178.5,968.7813" style="stroke:#A80036;stroke-width:1.0;"/><text fill="#000000" font-family="sans-serif" font-size="14" lengthAdjust="spacing" textLength="28" x="209.5" y="84.9951">实体</text><ellipse cx="226.5" cy="56" fill="#FEFECE" filter="url(#f1julvlqccfwkt)" rx="12" ry="12" style="stroke:#A80036;stroke-width:2.0;"/><line style="stroke:#A80036;stroke-width:2.0;" x1="214.5" x2="238.5" y1="70" y2="70"/><text fill="#000000" font-family="sans-serif" font-size="14" lengthAdjust="spacing" textLength="28" x="209.5" y="961.4795">实体</text><ellipse cx="226.5" cy="980.7813" fill="#FEFECE" filter="url(#f1julvlqccfwkt)" rx="12" ry="12" style="stroke:#A80036;stroke-width:2.0;"/><line style="stroke:#A80036;stroke-width:2.0;" x1="214.5" x2="238.5" y1="994.7813" y2="994.7813"/><text fill="#000000" font-family="sans-serif" font-size="14" lengthAdjust="spacing" textLength="42" x="253.5" y="84.9951">数据库</text><path d="M259.5,36 C259.5,26 277.5,26 277.5,26 C277.5,26 295.5,26 295.5,36 L295.5,62 C295.5,72 277.5,72 277.5,72 C277.5,72 259.5,72 259.5,62 L259.5,36 " fill="#FEFECE" filter="url(#f1julvlqccfwkt)" style="stroke:#000000;stroke-width:1.5;"/><path d="M259.5,36 C259.5,46 277.5,46 277.5,46 C277.5,46 295.5,46 295.5,36 " fill="none" style="stroke:#000000;stroke-width:1.5;"/><text fill="#000000" font-family="sans-serif" font-size="14" lengthAdjust="spacing" textLength="42" x="253.5" y="961.4795">数据库</text><path d="M259.5,974.7813 C259.5,964.7813 277.5,964.7813 277.5,964.7813 C277.5,964.7813 295.5,964.7813 295.5,974.7813 L295.5,1000.7813 C295.5,1010.7813 277.5,1010.7813 277.5,1010.7813 C277.5,1010.7813 259.5,1010.7813 259.5,1000.7813 L259.5,974.7813 " fill="#FEFECE" filter="url(#f1julvlqccfwkt)" style="stroke:#000000;stroke-width:1.5;"/><path d="M259.5,974.7813 C259.5,984.7813 277.5,984.7813 277.5,984.7813 C277.5,984.7813 295.5,984.7813 295.5,974.7813 " fill="none" style="stroke:#000000;stroke-width:1.5;"/><rect fill="#FEFECE" filter="url(#f1julvlqccfwkt)" height="30.2969" style="stroke:#A80036;stroke-width:1.5;" width="42" x="315.5" y="49"/><rect fill="#FEFECE" filter="url(#f1julvlqccfwkt)" height="30.2969" style="stroke:#A80036;stroke-width:1.5;" width="42" x="311.5" y="53"/><text fill="#000000" font-family="sans-serif" font-size="14" lengthAdjust="spacing" textLength="28" x="318.5" y="72.9951">收集</text><rect fill="#FEFECE" filter="url(#f1julvlqccfwkt)" height="30.2969" style="stroke:#A80036;stroke-width:1.5;" width="42" x="315.5" y="948.4844"/><rect fill="#FEFECE" filter="url(#f1julvlqccfwkt)" height="30.2969" style="stroke:#A80036;stroke-width:1.5;" width="42" x="311.5" y="952.4844"/><text fill="#000000" font-family="sans-serif" font-size="14" lengthAdjust="spacing" textLength="28" x="318.5" y="972.4795">收集</text><rect fill="#FEFECE" filter="url(#f1julvlqccfwkt)" height="30.2969" style="stroke:#A80036;stroke-width:1.5;" width="43" x="371.5" y="53"/><text fill="#000000" font-family="sans-serif" font-size="14" lengthAdjust="spacing" textLength="29" x="378.5" y="72.9951">Bob</text><rect fill="#FEFECE" filter="url(#f1julvlqccfwkt)" height="30.2969" style="stroke:#A80036;stroke-width:1.5;" width="43" x="371.5" y="948.4844"/><text fill="#000000" font-family="sans-serif" font-size="14" lengthAdjust="spacing" textLength="29" x="378.5" y="968.4795">Bob</text><rect fill="#FEFECE" filter="url(#f1julvlqccfwkt)" height="30.2969" style="stroke:#A80036;stroke-width:1.5;" width="49" x="733.5" y="53"/><text fill="#000000" font-family="sans-serif" font-size="14" lengthAdjust="spacing" textLength="35" x="740.5" y="72.9951">Alice</text><rect fill="#FEFECE" filter="url(#f1julvlqccfwkt)" height="30.2969" style="stroke:#A80036;stroke-width:1.5;" width="49" x="733.5" y="948.4844"/><text fill="#000000" font-family="sans-serif" font-size="14" lengthAdjust="spacing" textLength="35" x="740.5" y="968.4795">Alice</text><rect fill="#FEFECE" filter="url(#f1julvlqccfwkt)" height="30.2969" style="stroke:#A80036;stroke-width:1.5;" width="45" x="796.5" y="53"/><text fill="#000000" font-family="sans-serif" font-size="14" lengthAdjust="spacing" textLength="31" x="803.5" y="72.9951">User</text><rect fill="#FEFECE" filter="url(#f1julvlqccfwkt)" height="30.2969" style="stroke:#A80036;stroke-width:1.5;" width="45" x="796.5" y="948.4844"/><text fill="#000000" font-family="sans-serif" font-size="14" lengthAdjust="spacing" textLength="31" x="803.5" y="968.4795">User</text><rect fill="#FEFECE" filter="url(#f1julvlqccfwkt)" height="30.2969" style="stroke:#A80036;stroke-width:1.5;" width="24" x="985" y="53"/><text fill="#000000" font-family="sans-serif" font-size="14" lengthAdjust="spacing" textLength="10" x="992" y="72.9951">A</text><rect fill="#FEFECE" filter="url(#f1julvlqccfwkt)" height="30.2969" style="stroke:#A80036;stroke-width:1.5;" width="24" x="985" y="948.4844"/><text fill="#000000" font-family="sans-serif" font-size="14" lengthAdjust="spacing" textLength="10" x="992" y="968.4795">A</text><rect fill="#FEFECE" filter="url(#f1julvlqccfwkt)" height="30.2969" style="stroke:#A80036;stroke-width:1.5;" width="24" x="1269" y="53"/><text fill="#000000" font-family="sans-serif" font-size="14" lengthAdjust="spacing" textLength="10" x="1276" y="72.9951">B</text><rect fill="#FEFECE" filter="url(#f1julvlqccfwkt)" height="30.2969" style="stroke:#A80036;stroke-width:1.5;" width="24" x="1269" y="948.4844"/><text fill="#000000" font-family="sans-serif" font-size="14" lengthAdjust="spacing" textLength="10" x="1276" y="968.4795">B</text><rect fill="#FEFECE" filter="url(#f1julvlqccfwkt)" height="30.2969" style="stroke:#A80036;stroke-width:1.5;" width="24" x="1482" y="53"/><text fill="#000000" font-family="sans-serif" font-size="14" lengthAdjust="spacing" textLength="10" x="1489" y="72.9951">C</text><rect fill="#FEFECE" filter="url(#f1julvlqccfwkt)" height="30.2969" style="stroke:#A80036;stroke-width:1.5;" width="24" x="1482" y="948.4844"/><text fill="#000000" font-family="sans-serif" font-size="14" lengthAdjust="spacing" textLength="10" x="1489" y="968.4795">C</text><rect fill="#FFFFFF" filter="url(#f1julvlqccfwkt)" height="145.6641" style="stroke:#A80036;stroke-width:1.0;" width="10" x="994" y="785.8203"/><rect fill="#FFFFFF" filter="url(#f1julvlqccfwkt)" height="87.3984" style="stroke:#A80036;stroke-width:1.0;" width="10" x="1278" y="814.9531"/><rect fill="#FFFFFF" filter="url(#f1julvlqccfwkt)" height="29.1328" style="stroke:#A80036;stroke-width:1.0;" width="10" x="1491" y="844.0859"/><polygon fill="#A80036" points="119,115.4297,129,119.4297,119,123.4297,123,119.4297" style="stroke:#A80036;stroke-width:1.0;"/><line style="stroke:#A80036;stroke-width:1.0;" x1="29" x2="125" y1="119.4297" y2="119.4297"/><text fill="#000000" font-family="sans-serif" font-size="13" lengthAdjust="spacing" textLength="78" x="36" y="114.3638">满足边界条件</text><polygon fill="#A80036" points="170.5,144.5625,180.5,148.5625,170.5,152.5625,174.5,148.5625" style="stroke:#A80036;stroke-width:1.0;"/><line style="stroke:#A80036;stroke-width:1.0;" x1="29" x2="176.5" y1="148.5625" y2="148.5625"/><text fill="#000000" font-family="sans-serif" font-size="13" lengthAdjust="spacing" textLength="52" x="36" y="143.4966">控制系统</text><polygon fill="#A80036" points="214.5,173.6953,224.5,177.6953,214.5,181.6953,218.5,177.6953" style="stroke:#A80036;stroke-width:1.0;"/><line style="stroke:#A80036;stroke-width:1.0;" x1="29" x2="220.5" y1="177.6953" y2="177.6953"/><text fill="#000000" font-family="sans-serif" font-size="13" lengthAdjust="spacing" textLength="52" x="36" y="172.6294">操作实体</text><polygon fill="#A80036" points="265.5,202.8281,275.5,206.8281,265.5,210.8281,269.5,206.8281" style="stroke:#A80036;stroke-width:1.0;"/><line style="stroke:#A80036;stroke-width:1.0;" x1="29" x2="271.5" y1="206.8281" y2="206.8281"/><text fill="#000000" font-family="sans-serif" font-size="13" lengthAdjust="spacing" textLength="65" x="36" y="201.7622">同步数据库</text><polygon fill="#A80036" points="324.5,231.9609,334.5,235.9609,324.5,239.9609,328.5,235.9609" style="stroke:#A80036;stroke-width:1.0;"/><line style="stroke:#A80036;stroke-width:1.0;" x1="29" x2="330.5" y1="235.9609" y2="235.9609"/><text fill="#000000" font-family="sans-serif" font-size="13" lengthAdjust="spacing" textLength="78" x="36" y="230.895">完成数据采集</text><line style="stroke:#A80036;stroke-width:2.0;" x1="742" x2="752" y1="244.9609" y2="254.9609"/><line style="stroke:#A80036;stroke-width:2.0;" x1="742" x2="752" y1="254.9609" y2="244.9609"/><line style="stroke:#A80036;stroke-width:1.0;" x1="395" x2="747" y1="249.9609" y2="249.9609"/><polygon fill="#A80036" points="748,259.9609,758,263.9609,748,267.9609,752,263.9609" style="stroke:#A80036;stroke-width:1.0;"/><line style="stroke:#A80036;stroke-width:1.0;" x1="395" x2="754" y1="263.9609" y2="263.9609"/><line style="stroke:#A80036;stroke-width:1.0;" x1="758" x2="748" y1="277.9609" y2="273.9609"/><line style="stroke:#A80036;stroke-width:1.0;" x1="758" x2="748" y1="277.9609" y2="281.9609"/><line style="stroke:#A80036;stroke-width:1.0;" x1="395" x2="759" y1="277.9609" y2="277.9609"/><polygon fill="#A80036" points="748,287.9609,758,291.9609,748,291.9609" style="stroke:#A80036;stroke-width:1.0;"/><line style="stroke:#A80036;stroke-width:1.0;" x1="395" x2="759" y1="291.9609" y2="291.9609"/><line style="stroke:#A80036;stroke-width:1.0;" x1="395" x2="405" y1="305.9609" y2="309.9609"/><line style="stroke:#A80036;stroke-width:1.0;" x1="395" x2="759" y1="305.9609" y2="305.9609"/><line style="stroke:#A80036;stroke-width:1.0;" x1="395" x2="405" y1="319.9609" y2="315.9609"/><line style="stroke:#A80036;stroke-width:1.0;stroke-dasharray:2.0,2.0;" x1="395" x2="759" y1="319.9609" y2="319.9609"/><ellipse cx="759.5" cy="333.2109" rx="4" ry="4" style="stroke:#A80036;stroke-width:1.5;fill:none;"/><polygon fill="#A80036" points="742.5,329.9609,752.5,333.9609,742.5,337.9609,746.5,333.9609" style="stroke:#A80036;stroke-width:1.0;"/><line style="stroke:#A80036;stroke-width:1.0;" x1="395" x2="748.5" y1="333.9609" y2="333.9609"/><ellipse cx="394.5" cy="347.2109" rx="4" ry="4" style="stroke:#A80036;stroke-width:1.5;fill:none;"/><line style="stroke:#A80036;stroke-width:1.0;fill:none;" x1="400.5" x2="410.5" y1="347.9609" y2="351.9609"/><line style="stroke:#A80036;stroke-width:1.0;fill:none;stroke-dasharray:2.0,2.0;" x1="395" x2="759" y1="347.9609" y2="347.9609"/><polygon fill="#A80036" points="406,357.9609,396,361.9609,406,365.9609,402,361.9609" style="stroke:#A80036;stroke-width:1.0;"/><polygon fill="#A80036" points="748,357.9609,758,361.9609,748,365.9609,752,361.9609" style="stroke:#A80036;stroke-width:1.0;"/><line style="stroke:#A80036;stroke-width:1.0;" x1="400" x2="754" y1="361.9609" y2="361.9609"/><polygon fill="#A80036" points="406,371.9609,396,375.9609,406,379.9609,402,375.9609" style="stroke:#A80036;stroke-width:1.0;"/><ellipse cx="759.5" cy="375.2109" rx="4" ry="4" style="stroke:#A80036;stroke-width:1.5;fill:none;"/><polygon fill="#A80036" points="742.5,371.9609,752.5,375.9609,742.5,379.9609,746.5,375.9609" style="stroke:#A80036;stroke-width:1.0;"/><line style="stroke:#A80036;stroke-width:1.0;" x1="400" x2="748.5" y1="375.9609" y2="375.9609"/><polygon fill="#FF0000" points="748,401.0938,758,405.0938,748,409.0938,752,405.0938" style="stroke:#FF0000;stroke-width:1.0;"/><line style="stroke:#FF0000;stroke-width:1.0;" x1="395" x2="754" y1="405.0938" y2="405.0938"/><text fill="#000000" font-family="sans-serif" font-size="13" lengthAdjust="spacing" textLength="30" x="402" y="400.0278">hello</text><polygon fill="#0000FF" points="406,430.2266,396,434.2266,406,438.2266,402,434.2266" style="stroke:#0000FF;stroke-width:1.0;"/><line style="stroke:#0000FF;stroke-width:1.0;stroke-dasharray:2.0,2.0;" x1="400" x2="759" y1="434.2266" y2="434.2266"/><text fill="#000000" font-family="sans-serif" font-size="13" lengthAdjust="spacing" textLength="15" x="412" y="429.1606">ok</text><polygon fill="#A80036" points="748,459.3594,758,463.3594,748,467.3594,752,463.3594" style="stroke:#A80036;stroke-width:1.0;"/><line style="stroke:#A80036;stroke-width:1.0;" x1="395" x2="754" y1="463.3594" y2="463.3594"/><text fill="#000000" font-family="sans-serif" font-size="13" font-weight="bold" lengthAdjust="spacing" textLength="41" x="402" y="458.2935">[001]</text><text fill="#000000" font-family="sans-serif" font-size="13" lengthAdjust="spacing" textLength="150" x="447" y="458.2935">Authentication Request</text><polygon fill="#A80036" points="406,488.4922,396,492.4922,406,496.4922,402,492.4922" style="stroke:#A80036;stroke-width:1.0;"/><line style="stroke:#A80036;stroke-width:1.0;" x1="400" x2="759" y1="492.4922" y2="492.4922"/><text fill="#000000" font-family="sans-serif" font-size="13" font-weight="bold" lengthAdjust="spacing" textLength="41" x="412" y="487.4263">[002]</text><text fill="#000000" font-family="sans-serif" font-size="13" lengthAdjust="spacing" textLength="160" x="457" y="487.4263">Authentication Response</text><polygon fill="#A80036" points="748,517.625,758,521.625,748,525.625,752,521.625" style="stroke:#A80036;stroke-width:1.0;"/><line style="stroke:#A80036;stroke-width:1.0;" x1="395" x2="754" y1="521.625" y2="521.625"/><text fill="#000000" font-family="sans-serif" font-size="13" font-weight="bold" lengthAdjust="spacing" textLength="6" x="402" y="516.5591">(</text><text fill="#000000" font-family="sans-serif" font-size="13" font-weight="bold" lengthAdjust="spacing" text-decoration="underline" textLength="18" x="408" y="516.5591">15</text><text fill="#000000" font-family="sans-serif" font-size="13" font-weight="bold" lengthAdjust="spacing" textLength="6" x="426" y="516.5591">)</text><text fill="#000000" font-family="sans-serif" font-size="13" lengthAdjust="spacing" textLength="204" x="436" y="516.5591">Another authentication Request</text><polygon fill="#A80036" points="406,546.7578,396,550.7578,406,554.7578,402,550.7578" style="stroke:#A80036;stroke-width:1.0;"/><line style="stroke:#A80036;stroke-width:1.0;" x1="400" x2="759" y1="550.7578" y2="550.7578"/><text fill="#000000" font-family="sans-serif" font-size="13" font-weight="bold" lengthAdjust="spacing" textLength="6" x="412" y="545.6919">(</text><text fill="#000000" font-family="sans-serif" font-size="13" font-weight="bold" lengthAdjust="spacing" text-decoration="underline" textLength="18" x="418" y="545.6919">16</text><text fill="#000000" font-family="sans-serif" font-size="13" font-weight="bold" lengthAdjust="spacing" textLength="6" x="436" y="545.6919">)</text><text fill="#000000" font-family="sans-serif" font-size="13" lengthAdjust="spacing" textLength="214" x="446" y="545.6919">Another authentication Response</text><polygon fill="#A80036" points="748,575.8906,758,579.8906,748,583.8906,752,579.8906" style="stroke:#A80036;stroke-width:1.0;"/><line style="stroke:#A80036;stroke-width:1.0;" x1="395" x2="754" y1="579.8906" y2="579.8906"/><text fill="#FF0000" font-family="sans-serif" font-size="13" font-weight="bold" lengthAdjust="spacing" textLength="89" x="402" y="574.8247">Message 40</text><text fill="#000000" font-family="sans-serif" font-size="13" lengthAdjust="spacing" textLength="228" x="505" y="574.8247">Yet another authentication Request</text><polygon fill="#A80036" points="406,605.0234,396,609.0234,406,613.0234,402,609.0234" style="stroke:#A80036;stroke-width:1.0;"/><line style="stroke:#A80036;stroke-width:1.0;" x1="400" x2="759" y1="609.0234" y2="609.0234"/><text fill="#FF0000" font-family="sans-serif" font-size="13" font-weight="bold" lengthAdjust="spacing" textLength="89" x="412" y="603.9575">Message 50</text><text fill="#000000" font-family="sans-serif" font-size="13" lengthAdjust="spacing" textLength="238" x="515" y="603.9575">Yet another authentication Response</text><polygon fill="#A80036" points="406,639.1563,396,643.1563,406,647.1563,402,643.1563" style="stroke:#A80036;stroke-width:1.0;"/><line style="stroke:#A80036;stroke-width:1.0;" x1="400" x2="759" y1="643.1563" y2="643.1563"/><text fill="#FF0000" font-family="sans-serif" font-size="13" font-weight="bold" lengthAdjust="spacing" textLength="89" x="412" y="638.0903">Message 60</text><text fill="#000000" font-family="sans-serif" font-size="13" lengthAdjust="spacing" textLength="30" x="515" y="638.0903">hello</text><path d="M254,622.0234 L254,647.0234 L386,647.0234 L386,632.0234 L376,622.0234 L254,622.0234 " fill="#FBFB77" filter="url(#f1julvlqccfwkt)" style="stroke:#A80036;stroke-width:1.0;"/><path d="M376,622.0234 L376,632.0234 L386,632.0234 L376,622.0234 " fill="#FBFB77" style="stroke:#A80036;stroke-width:1.0;"/><text fill="#000000" font-family="sans-serif" font-size="13" lengthAdjust="spacing" textLength="111" x="260" y="639.0903">this is a first note</text><polygon fill="#A80036" points="748,678.2891,758,682.2891,748,686.2891,752,682.2891" style="stroke:#A80036;stroke-width:1.0;"/><line style="stroke:#A80036;stroke-width:1.0;" x1="395" x2="754" y1="682.2891" y2="682.2891"/><text fill="#FF0000" font-family="sans-serif" font-size="13" font-weight="bold" lengthAdjust="spacing" textLength="89" x="402" y="677.2231">Message 70</text><text fill="#000000" font-family="sans-serif" font-size="13" lengthAdjust="spacing" textLength="15" x="505" y="677.2231">ok</text><path d="M765,661.1563 L765,686.1563 L910,686.1563 L910,671.1563 L900,661.1563 L765,661.1563 " fill="#FBFB77" filter="url(#f1julvlqccfwkt)" style="stroke:#A80036;stroke-width:1.0;"/><path d="M900,661.1563 L900,671.1563 L910,671.1563 L900,661.1563 " fill="#FBFB77" style="stroke:#A80036;stroke-width:1.0;"/><text fill="#000000" font-family="sans-serif" font-size="13" lengthAdjust="spacing" textLength="124" x="771" y="678.2231">this is another note</text><line style="stroke:#A80036;stroke-width:1.0;" x1="395" x2="437" y1="730.0547" y2="730.0547"/><line style="stroke:#A80036;stroke-width:1.0;" x1="437" x2="437" y1="730.0547" y2="743.0547"/><line style="stroke:#A80036;stroke-width:1.0;" x1="396" x2="437" y1="743.0547" y2="743.0547"/><polygon fill="#A80036" points="406,739.0547,396,743.0547,406,747.0547,402,743.0547" style="stroke:#A80036;stroke-width:1.0;"/><text fill="#FF0000" font-family="sans-serif" font-size="13" font-weight="bold" lengthAdjust="spacing" textLength="89" x="402" y="724.9888">Message 80</text><text fill="#000000" font-family="sans-serif" font-size="13" lengthAdjust="spacing" textLength="82" x="505" y="724.9888">I am thinking</text><path d="M240,700.2891 L240,755.2891 L386,755.2891 L386,710.2891 L376,700.2891 L240,700.2891 " fill="#FBFB77" filter="url(#f1julvlqccfwkt)" style="stroke:#A80036;stroke-width:1.0;"/><path d="M376,700.2891 L376,710.2891 L386,710.2891 L376,700.2891 " fill="#FBFB77" style="stroke:#A80036;stroke-width:1.0;"/><text fill="#000000" font-family="sans-serif" font-size="13" lengthAdjust="spacing" textLength="41" x="246" y="717.356">a note</text><text fill="#000000" font-family="sans-serif" font-size="13" lengthAdjust="spacing" textLength="125" x="246" y="732.4888">can also be defined</text><text fill="#000000" font-family="sans-serif" font-size="13" lengthAdjust="spacing" textLength="100" x="246" y="747.6216">on several lines</text><polygon fill="#A80036" points="982,781.8203,992,785.8203,982,789.8203,986,785.8203" style="stroke:#A80036;stroke-width:1.0;"/><line style="stroke:#A80036;stroke-width:1.0;" x1="821" x2="988" y1="785.8203" y2="785.8203"/><text fill="#FF0000" font-family="sans-serif" font-size="13" font-weight="bold" lengthAdjust="spacing" textLength="89" x="828" y="780.7544">Message 90</text><text fill="#000000" font-family="sans-serif" font-size="13" lengthAdjust="spacing" textLength="51" x="931" y="780.7544">DoWork</text><polygon fill="#A80036" points="1266,810.9531,1276,814.9531,1266,818.9531,1270,814.9531" style="stroke:#A80036;stroke-width:1.0;"/><line style="stroke:#A80036;stroke-width:1.0;" x1="1004" x2="1272" y1="814.9531" y2="814.9531"/><text fill="#FF0000" font-family="sans-serif" font-size="13" font-weight="bold" lengthAdjust="spacing" textLength="99" x="1011" y="809.8872">Message 100</text><text fill="#000000" font-family="sans-serif" font-size="13" lengthAdjust="spacing" textLength="142" x="1124" y="809.8872">&lt;&lt; createRequest &gt;&gt;</text><polygon fill="#A80036" points="1479,840.0859,1489,844.0859,1479,848.0859,1483,844.0859" style="stroke:#A80036;stroke-width:1.0;"/><line style="stroke:#A80036;stroke-width:1.0;" x1="1288" x2="1485" y1="844.0859" y2="844.0859"/><text fill="#FF0000" font-family="sans-serif" font-size="13" font-weight="bold" lengthAdjust="spacing" textLength="98" x="1295" y="839.02">Message 110</text><text fill="#000000" font-family="sans-serif" font-size="13" lengthAdjust="spacing" textLength="51" x="1407" y="839.02">DoWork</text><polygon fill="#A80036" points="1299,869.2188,1289,873.2188,1299,877.2188,1295,873.2188" style="stroke:#A80036;stroke-width:1.0;"/><line style="stroke:#A80036;stroke-width:1.0;stroke-dasharray:2.0,2.0;" x1="1293" x2="1495" y1="873.2188" y2="873.2188"/><text fill="#FF0000" font-family="sans-serif" font-size="13" font-weight="bold" lengthAdjust="spacing" textLength="98" x="1305" y="868.1528">Message 120</text><text fill="#000000" font-family="sans-serif" font-size="13" lengthAdjust="spacing" textLength="67" x="1417" y="868.1528">WorkDone</text><line style="stroke:#A80036;stroke-width:2.0;" x1="1487" x2="1505" y1="864.2188" y2="882.2188"/><line style="stroke:#A80036;stroke-width:2.0;" x1="1487" x2="1505" y1="882.2188" y2="864.2188"/><polygon fill="#A80036" points="1015,898.3516,1005,902.3516,1015,906.3516,1011,902.3516" style="stroke:#A80036;stroke-width:1.0;"/><line style="stroke:#A80036;stroke-width:1.0;stroke-dasharray:2.0,2.0;" x1="1009" x2="1282" y1="902.3516" y2="902.3516"/><text fill="#FF0000" font-family="sans-serif" font-size="13" font-weight="bold" lengthAdjust="spacing" textLength="97" x="1021" y="897.2856">Message 130</text><text fill="#000000" font-family="sans-serif" font-size="13" lengthAdjust="spacing" textLength="104" x="1132" y="897.2856">RequestCreated</text><polygon fill="#A80036" points="832,927.4844,822,931.4844,832,935.4844,828,931.4844" style="stroke:#A80036;stroke-width:1.0;"/><line style="stroke:#A80036;stroke-width:1.0;" x1="826" x2="998" y1="931.4844" y2="931.4844"/><text fill="#FF0000" font-family="sans-serif" font-size="13" font-weight="bold" lengthAdjust="spacing" textLength="98" x="838" y="926.4185">Message 140</text><text fill="#000000" font-family="sans-serif" font-size="13" lengthAdjust="spacing" textLength="34" x="950" y="926.4185">Done</text><!--MD5=[bc8010ca12f91501c1ceafe82599fe40]
@startuml
actor 参与者
boundary 限制
control 控制
entity 实体
database 数据库
collections 收集

参与者 -> 限制 : 满足边界条件
参与者 -> 控制 : 控制系统
参与者 -> 实体 : 操作实体
参与者 -> 数据库 : 同步数据库
参与者 -> 收集 : 完成数据采集



Bob ->x Alice
Bob -> Alice
Bob ->> Alice
Bob -\ Alice
Bob \\- Alice
Bob //- - Alice

Bob ->o Alice
Bob o\\- - Alice

Bob <-> Alice
Bob <->o Alice



Bob -[#red]> Alice : hello
Alice -[#0000FF]->Bob : ok



autonumber "<b>[000]"
Bob -> Alice : Authentication Request
Bob <- Alice : Authentication Response

autonumber 15 "<b>(<u>##</u>)"
Bob -> Alice : Another authentication Request
Bob <- Alice : Another authentication Response

autonumber 40 10 "<font color=red><b>Message 0  "
Bob -> Alice : Yet another authentication Request
Bob <- Alice : Yet another authentication Response






Alice->Bob : hello
note left: this is a first note

Bob->Alice : ok
note right: this is another note

Bob->Bob : I am thinking
note left
	a note
	can also be defined
	on several lines
end note




participant User

User -> A: DoWork
activate A

A -> B: << createRequest >>
activate B

B -> C: DoWork
activate C
C - -> B: WorkDone
destroy C

B - -> A: RequestCreated
deactivate B

A -> User: Done
deactivate A
@enduml

PlantUML version 1.2021.7(Sun May 23 12:40:07 UTC 2021)
(GPL source distribution)
Java Runtime: Java(TM) SE Runtime Environment
JVM: Java HotSpot(TM) 64-Bit Server VM
Default Encoding: UTF-8
Language: en
Country: US
--></g></svg>