<?xml version="1.0" encoding="UTF-8" standalone="no"?><svg xmlns="http://www.w3.org/2000/svg" xmlns:xlink="http://www.w3.org/1999/xlink" contentScriptType="application/ecmascript" contentStyleType="text/css" height="295.5804px" preserveAspectRatio="none" style="width:351px;height:295px;background:#FFFFFF;" version="1.1" viewBox="0 0 351 295" width="351.1182px" zoomAndPan="magnify"><defs><filter height="300%" id="f1k73t7h3rx3d1" width="300%" x="-1" y="-1"><feGaussianBlur result="blurOut" stdDeviation="0.7454739084132055"/><feColorMatrix in="blurOut" result="blurOut2" type="matrix" values="0 0 0 0 0 0 0 0 0 0 0 0 0 0 0 0 0 0 .4 0"/><feOffset dx="1.490947816826411" dy="1.490947816826411" in="blurOut2" result="blurOut3"/><feBlend in="SourceGraphic" in2="blurOut3" mode="normal"/></filter></defs><g><!--MD5=[800b1223214602edd7709253107ef117]
cluster NotShooting--><rect fill="#FEFECE" filter="url(#f1k73t7h3rx3d1)" height="82.934" rx="4.6592" ry="4.6592" style="stroke:#A80036;stroke-width:0.5591054313099041;" width="39.8829" x="55.9105" y="83.1203"/><rect fill="#FFFFFF" height="70.8957" rx="4.6592" ry="4.6592" style="stroke:#FFFFFF;stroke-width:0.37273695420660274;" width="37.6464" x="57.0288" y="94.0404"/><line style="stroke:#A80036;stroke-width:0.5591054313099041;" x1="55.9105" x2="95.7934" y1="92.9222" y2="92.9222"/><text fill="#000000" font-family="sans-serif" font-size="5.2183" lengthAdjust="spacing" textLength="33.9191" x="58.8924" y="89.455">NotShooting</text><ellipse cx="77.5293" cy="102.8754" fill="#000000" filter="url(#f1k73t7h3rx3d1)" rx="3.7274" ry="3.7274" style="stroke:none;stroke-width:0.37273695420660274;"/><g id="NotShooting.Idle"><rect fill="#FEFECE" filter="url(#f1k73t7h3rx3d1)" height="18.6368" rx="4.6592" ry="4.6592" style="stroke:#A80036;stroke-width:0.5591054313099041;" width="18.6368" x="68.2109" y="138.4718"/><line style="stroke:#A80036;stroke-width:0.5591054313099041;" x1="68.2109" x2="86.8477" y1="148.2736" y2="148.2736"/><text fill="#000000" font-family="sans-serif" font-size="5.2183" lengthAdjust="spacing" textLength="9.6912" x="72.6837" y="145.1792">Idle</text></g><ellipse cx="131.5761" cy="53.3014" fill="#000000" filter="url(#f1k73t7h3rx3d1)" rx="3.7274" ry="3.7274" style="stroke:none;stroke-width:0.37273695420660274;"/><g id="State1"><rect fill="#FEFECE" filter="url(#f1k73t7h3rx3d1)" height="23.9425" rx="4.6592" ry="4.6592" style="stroke:#A80036;stroke-width:0.5591054313099041;" width="53.3014" x="104.9255" y="90.9478"/><line style="stroke:#A80036;stroke-width:0.5591054313099041;" x1="104.9255" x2="158.2268" y1="100.7496" y2="100.7496"/><text fill="#000000" font-family="sans-serif" font-size="5.2183" lengthAdjust="spacing" textLength="18.2641" x="122.4441" y="97.6553">State1</text><text fill="#000000" font-family="sans-serif" font-size="4.4728" lengthAdjust="spacing" textLength="31.3099" x="106.7891" y="106.7651">this is a string</text><text fill="#000000" font-family="sans-serif" font-size="4.4728" lengthAdjust="spacing" textLength="45.8466" x="106.7891" y="111.9718">this is another string</text></g><ellipse cx="157.6677" cy="147.7902" filter="url(#f1k73t7h3rx3d1)" rx="3.7274" ry="3.7274" style="stroke:#000000;stroke-width:0.37273695420660274;fill:none;"/><ellipse cx="157.8541" cy="147.9766" fill="#000000" rx="2.2364" ry="2.2364" style="stroke:none;stroke-width:0.37273695420660274;"/><g id="State2"><rect fill="#FEFECE" filter="url(#f1k73t7h3rx3d1)" height="18.6368" rx="4.6592" ry="4.6592" style="stroke:#A80036;stroke-width:0.5591054313099041;" width="25.3461" x="171.459" y="93.557"/><line style="stroke:#A80036;stroke-width:0.5591054313099041;" x1="171.459" x2="196.8051" y1="103.3588" y2="103.3588"/><text fill="#000000" font-family="sans-serif" font-size="5.2183" lengthAdjust="spacing" textLength="17.8914" x="175.1864" y="100.2644">State2</text></g><g id="First"><rect fill="#FEFECE" filter="url(#f1k73t7h3rx3d1)" height="18.6368" rx="4.6592" ry="4.6592" style="stroke:#A80036;stroke-width:0.5591054313099041;" width="19.3823" x="136.049" y="2.6092"/><line style="stroke:#A80036;stroke-width:0.5591054313099041;" x1="136.049" x2="155.4313" y1="12.411" y2="12.411"/><text fill="#000000" font-family="sans-serif" font-size="5.2183" lengthAdjust="spacing" textLength="11.9276" x="139.7764" y="9.3166">First</text></g><g id="Second"><rect fill="#FEFECE" filter="url(#f1k73t7h3rx3d1)" height="18.6368" rx="4.6592" ry="4.6592" style="stroke:#A80036;stroke-width:0.5591054313099041;" width="27.2098" x="170.1544" y="2.6092"/><line style="stroke:#A80036;stroke-width:0.5591054313099041;" x1="170.1544" x2="197.3642" y1="12.411" y2="12.411"/><text fill="#000000" font-family="sans-serif" font-size="5.2183" lengthAdjust="spacing" textLength="19.7551" x="173.8818" y="9.3166">Second</text></g><g id="Third"><rect fill="#FEFECE" filter="url(#f1k73t7h3rx3d1)" height="18.6368" rx="4.6592" ry="4.6592" style="stroke:#A80036;stroke-width:0.5591054313099041;" width="21.246" x="180.2183" y="43.983"/><line style="stroke:#A80036;stroke-width:0.5591054313099041;" x1="180.2183" x2="201.4643" y1="53.7848" y2="53.7848"/><text fill="#000000" font-family="sans-serif" font-size="5.2183" lengthAdjust="spacing" textLength="13.7913" x="183.9457" y="50.6904">Third</text></g><g id="Last"><rect fill="#FEFECE" filter="url(#f1k73t7h3rx3d1)" height="18.6368" rx="4.6592" ry="4.6592" style="stroke:#A80036;stroke-width:0.5591054313099041;" width="18.6368" x="148.3493" y="43.983"/><line style="stroke:#A80036;stroke-width:0.5591054313099041;" x1="148.3493" x2="166.9862" y1="53.7848" y2="53.7848"/><text fill="#000000" font-family="sans-serif" font-size="5.2183" lengthAdjust="spacing" textLength="11.1821" x="152.0767" y="50.6904">Last</text></g><g id="Active"><rect fill="#FEFECE" filter="url(#f1k73t7h3rx3d1)" height="18.6368" rx="4.6592" ry="4.6592" style="stroke:#A80036;stroke-width:0.5591054313099041;" width="24.6006" x="263.1523" y="93.557"/><line style="stroke:#A80036;stroke-width:0.5591054313099041;" x1="263.1523" x2="287.7529" y1="103.3588" y2="103.3588"/><text fill="#000000" font-family="sans-serif" font-size="5.2183" lengthAdjust="spacing" textLength="17.1459" x="266.8797" y="100.2644">Active</text></g><g id="Inactive"><rect fill="#FEFECE" filter="url(#f1k73t7h3rx3d1)" height="18.6368" rx="4.6592" ry="4.6592" style="stroke:#A80036;stroke-width:0.5591054313099041;" width="28.7007" x="261.1022" y="138.4718"/><line style="stroke:#A80036;stroke-width:0.5591054313099041;" x1="261.1022" x2="289.803" y1="148.2736" y2="148.2736"/><text fill="#000000" font-family="sans-serif" font-size="5.2183" lengthAdjust="spacing" textLength="21.246" x="264.8296" y="145.1792">Inactive</text></g><path d="M210.0373,95.4207 L210.0373,110.4291 A0,0 0 0 0 210.0373,110.4291 L249.9201,110.4291 A0,0 0 0 0 249.9201,110.4291 L249.9201,104.3663 L263.1489,102.8754 L249.9201,101.3845 L249.9201,99.148 L246.1928,95.4207 L210.0373,95.4207 A0,0 0 0 0 210.0373,95.4207 " fill="#FBFB77" filter="url(#f1k73t7h3rx3d1)" style="stroke:#A80036;stroke-width:0.37273695420660274;"/><path d="M246.1928,95.4207 L246.1928,99.148 L249.9201,99.148 L246.1928,95.4207 " fill="#FBFB77" style="stroke:#A80036;stroke-width:0.37273695420660274;"/><text fill="#000000" font-family="sans-serif" font-size="4.8456" lengthAdjust="spacing" textLength="32.0554" x="212.2737" y="101.7821">this is a short</text><text fill="#000000" font-family="sans-serif" font-size="4.8456" lengthAdjust="spacing" textLength="10.8094" x="212.2737" y="107.4227">note</text><path d="M303.0351,137.5399 L303.0351,146.2993 L289.8902,147.7902 L303.0351,149.2812 L303.0351,158.189 A0,0 0 0 0 303.0351,158.189 L347.7636,158.189 A0,0 0 0 0 347.7636,158.189 L347.7636,141.2673 L344.0362,137.5399 L303.0351,137.5399 A0,0 0 0 0 303.0351,137.5399 " fill="#FBFB77" filter="url(#f1k73t7h3rx3d1)" style="stroke:#A80036;stroke-width:0.37273695420660274;"/><path d="M344.0362,137.5399 L344.0362,141.2673 L347.7636,141.2673 L344.0362,137.5399 " fill="#FBFB77" style="stroke:#A80036;stroke-width:0.37273695420660274;"/><text fill="#000000" font-family="sans-serif" font-size="4.8456" lengthAdjust="spacing" textLength="36.901" x="305.2716" y="143.9014">A note can also</text><text fill="#000000" font-family="sans-serif" font-size="4.8456" lengthAdjust="spacing" textLength="32.8009" x="305.2716" y="149.542">be defined on</text><text fill="#000000" font-family="sans-serif" font-size="4.8456" lengthAdjust="spacing" textLength="29.819" x="305.2716" y="155.1825">several lines</text><rect fill="#FEFECE" filter="url(#f1k73t7h3rx3d1)" height="98.8859" rx="4.6592" ry="4.6592" style="stroke:#A80036;stroke-width:0.5591054313099041;" width="149.992" x="2.6092" y="192.5186"/><rect fill="#FFFFFF" height="86.8477" rx="4.6592" ry="4.6592" style="stroke:#FFFFFF;stroke-width:0.37273695420660274;" width="147.7556" x="3.7274" y="203.4387"/><line style="stroke:#A80036;stroke-width:0.5591054313099041;" x1="2.6092" x2="152.6012" y1="202.3205" y2="202.3205"/><text fill="#000000" font-family="sans-serif" font-size="5.2183" lengthAdjust="spacing" textLength="30.9372" x="62.1366" y="199.2261">Configuring</text><ellipse cx="50.0985" cy="210.1479" fill="#000000" filter="url(#f1k73t7h3rx3d1)" rx="3.7274" ry="3.7274" style="stroke:none;stroke-width:0.37273695420660274;"/><g id="Configuring.NewValueSelection"><rect fill="#FEFECE" filter="url(#f1k73t7h3rx3d1)" height="18.6368" rx="4.6592" ry="4.6592" style="stroke:#A80036;stroke-width:0.5591054313099041;" width="58.5197" x="20.8388" y="227.6666"/><line style="stroke:#A80036;stroke-width:0.5591054313099041;" x1="20.8388" x2="79.3585" y1="237.4684" y2="237.4684"/><text fill="#000000" font-family="sans-serif" font-size="5.2183" lengthAdjust="spacing" textLength="51.065" x="24.5662" y="234.374">NewValueSelection</text></g><g id="Configuring.NewValuePreview"><rect fill="#FEFECE" filter="url(#f1k73t7h3rx3d1)" height="18.6368" rx="4.6592" ry="4.6592" style="stroke:#A80036;stroke-width:0.5591054313099041;" width="54.0469" x="23.0752" y="266.0585"/><line style="stroke:#A80036;stroke-width:0.5591054313099041;" x1="23.0752" x2="77.1221" y1="275.8603" y2="275.8603"/><text fill="#000000" font-family="sans-serif" font-size="5.2183" lengthAdjust="spacing" textLength="46.5921" x="26.8026" y="272.7659">NewValuePreview</text></g><!--MD5=[ad6f9944ea8ff01150f6afbfa40da1a7]
link *start*Configuring to NewValueSelection--><path d="M50.0985,213.9316 C50.0985,216.9265 50.0985,221.4516 50.0985,225.6739 " fill="none" id="*start*Configuring-to-NewValueSelection" style="stroke:#A80036;stroke-width:0.37273695420660274;"/><polygon fill="#A80036" points="50.0985,227.5861,51.5895,224.2314,50.0985,225.7224,48.6076,224.2314,50.0985,227.5861" style="stroke:#A80036;stroke-width:0.37273695420660274;"/><!--MD5=[29f84f4f9bf922d2399f1931e6bcbfc8]
link NewValueSelection to NewValuePreview--><path d="M20.8166,244.5948 C17.0789,246.7175 13.7289,249.4627 11.334,253.0127 C6.7093,259.868 12.7023,264.8323 21.2537,268.2897 " fill="none" id="NewValueSelection-to-NewValuePreview" style="stroke:#A80036;stroke-width:0.37273695420660274;"/><polygon fill="#A80036" points="22.9957,268.9612,20.4018,266.3634,21.2567,268.2909,19.3293,269.1458,22.9957,268.9612" style="stroke:#A80036;stroke-width:0.37273695420660274;"/><text fill="#000000" font-family="sans-serif" font-size="4.8456" lengthAdjust="spacing" textLength="29.819" x="11.7068" y="257.8832">EvNewValue</text><!--MD5=[3ba829c7540e6d1caa286f5598db8935]
link NewValuePreview to NewValueSelection--><path d="M50.0985,265.93 C50.0985,260.6502 50.0985,253.957 50.0985,248.3761 " fill="none" id="NewValuePreview-to-NewValueSelection" style="stroke:#A80036;stroke-width:0.37273695420660274;"/><polygon fill="#A80036" points="50.0985,246.375,48.6076,249.7296,50.0985,248.2387,51.5895,249.7296,50.0985,246.375" style="stroke:#A80036;stroke-width:0.37273695420660274;"/><text fill="#000000" font-family="sans-serif" font-size="4.8456" lengthAdjust="spacing" textLength="50.6922" x="50.4713" y="257.8832">EvNewValueRejected</text><!--MD5=[3ba829c7540e6d1caa286f5598db8935]
link NewValuePreview to NewValueSelection--><path d="M77.2192,272.3453 C93.6882,269.5832 110.0935,264.0356 101.909,253.0127 C96.9616,246.3496 89.2612,242.4206 81.2962,240.1324 " fill="none" id="NewValuePreview-to-NewValueSelection-1" style="stroke:#A80036;stroke-width:0.37273695420660274;"/><polygon fill="#A80036" points="79.4855,239.6407,82.3323,241.9585,81.2841,240.129,83.1135,239.0807,79.4855,239.6407" style="stroke:#A80036;stroke-width:0.37273695420660274;"/><text fill="#000000" font-family="sans-serif" font-size="4.8456" lengthAdjust="spacing" textLength="44.7284" x="104.1454" y="257.8832">EvNewValueSaved</text><!--MD5=[60533a5dc91355c93bf187ba4549d745]
link *start to State1--><path d="M131.5761,57.0302 C131.5761,63.501 131.5761,78.0247 131.5761,88.9287 " fill="none" id="*start-to-State1" style="stroke:#A80036;stroke-width:0.37273695420660274;"/><polygon fill="#A80036" points="131.5761,90.9199,133.0671,87.5652,131.5761,89.0562,130.0852,87.5652,131.5761,90.9199" style="stroke:#A80036;stroke-width:0.37273695420660274;"/><!--MD5=[ca1046a354e184ac9d197a073cc82934]
link State1 to *end--><path d="M138.4315,114.8529 C143.7863,123.9179 150.9525,136.0497 154.8513,142.6498 " fill="none" id="State1-to-*end" style="stroke:#A80036;stroke-width:0.37273695420660274;"/><polygon fill="#A80036" points="155.8603,144.3577,155.4377,140.711,154.9124,142.7531,152.8703,142.2278,155.8603,144.3577" style="stroke:#A80036;stroke-width:0.37273695420660274;"/><!--MD5=[dc702cd49c4e27e6abb2620dc4bb28d8]
link State1 to State2--><path d="M158.2649,111.8188 C162.0276,111.779 165.7904,111.1886 169.5532,110.048 " fill="none" id="State1-to-State2" style="stroke:#A80036;stroke-width:0.37273695420660274;"/><polygon fill="#A80036" points="171.4005,109.4438,167.7486,109.0694,169.6291,110.023,168.6754,111.9036,171.4005,109.4438" style="stroke:#A80036;stroke-width:0.37273695420660274;"/><!--MD5=[dc702cd49c4e27e6abb2620dc4bb28d8]
link State1 to State2--><path d="M158.2649,93.9319 C162.0276,93.9718 165.7904,94.5622 169.5532,95.7028 " fill="none" id="State1-to-State2-1" style="stroke:#A80036;stroke-width:0.37273695420660274;"/><polygon fill="#A80036" points="171.4005,96.307,168.6754,93.8472,169.6291,95.7278,167.7486,96.6814,171.4005,96.307" style="stroke:#A80036;stroke-width:0.37273695420660274;"/><!--MD5=[37ebb224bae70bf8df0e6bab9d19d55b]
link State2 to *end--><path d="M178.7128,112.293 C173.1643,121.5532 164.7605,135.5793 160.4435,142.7851 " fill="none" id="State2-to-*end" style="stroke:#A80036;stroke-width:0.37273695420660274;"/><polygon fill="#A80036" points="159.4379,144.4628,162.4411,142.3517,160.3959,142.8642,159.8834,140.8189,159.4379,144.4628" style="stroke:#A80036;stroke-width:0.37273695420660274;"/><!--MD5=[6963020cd457a4083cb84ea69fd80aef]
reverse link First to *start--><path d="M141.9546,23.1593 C138.8628,32.0278 134.6919,43.9912 132.7111,49.6724 " fill="none" id="First-backto-*start" style="stroke:#A80036;stroke-width:0.37273695420660274;"/><polygon fill="#A80036" points="142.5969,21.3172,140.0848,23.9942,141.9834,23.077,142.9006,24.9756,142.5969,21.3172" style="stroke:#A80036;stroke-width:0.37273695420660274;"/><!--MD5=[f5f9a0880b91badaece50caee00e6db8]
link First to Second--><path d="M155.542,11.9276 C159.7476,11.9276 163.9536,11.9276 168.1592,11.9276 " fill="none" id="First-to-Second" style="stroke:#A80036;stroke-width:0.37273695420660274;"/><polygon fill="#A80036" points="170.0914,11.9276,166.7368,10.4366,168.2277,11.9276,166.7368,13.4185,170.0914,11.9276" style="stroke:#A80036;stroke-width:0.37273695420660274;"/><!--MD5=[d59ba1fb24e7aadf37c9de884bc6b07b]
link Second to Third--><path d="M185.3312,21.3172 C186.3946,27.4185 187.8058,35.514 188.9337,41.9851 " fill="none" id="Second-to-Third" style="stroke:#A80036;stroke-width:0.37273695420660274;"/><polygon fill="#A80036" points="189.274,43.9371,190.1667,40.3763,188.9539,42.1011,187.2291,40.8883,189.274,43.9371" style="stroke:#A80036;stroke-width:0.37273695420660274;"/><!--MD5=[f31af7c8feaba4b54d9c1b5edbcb8ea3]
reverse link Last to Third--><path d="M168.9333,53.3014 C172.6346,53.3014 176.3359,53.3014 180.0372,53.3014 " fill="none" id="Last-backto-Third" style="stroke:#A80036;stroke-width:0.37273695420660274;"/><polygon fill="#A80036" points="166.9977,53.3014,170.3523,54.7923,168.8614,53.3014,170.3523,51.8104,166.9977,53.3014" style="stroke:#A80036;stroke-width:0.37273695420660274;"/><!--MD5=[edb54b3b19a9924369663c95443e5f29]
link *start to Active--><path d="M133.8577,56.3425 C135.8004,58.4217 138.7841,61.1878 142.0128,62.6198 C188.8759,83.407 212.128,51.3799 256.443,77.1565 C262.3032,80.5652 266.9266,86.5667 270.1463,91.8741 " fill="none" id="*start-to-Active" style="stroke:#A80036;stroke-width:0.37273695420660274;"/><polygon fill="#A80036" points="271.1002,93.4955,270.6841,89.8481,270.1551,91.8892,268.114,91.3602,271.1002,93.4955" style="stroke:#A80036;stroke-width:0.37273695420660274;"/><!--MD5=[5d4211fd6e1fe5891bc2a7c8d0161153]
link Active to Inactive--><path d="M275.4526,112.293 C275.4526,119.29 275.4526,129.0076 275.4526,136.4482 " fill="none" id="Active-to-Inactive" style="stroke:#A80036;stroke-width:0.37273695420660274;"/><polygon fill="#A80036" points="275.4526,138.3846,276.9436,135.0299,275.4526,136.5209,273.9617,135.0299,275.4526,138.3846" style="stroke:#A80036;stroke-width:0.37273695420660274;"/><!--MD5=[df0301a461d11e7e240ad86dcaf92dda]
link *start to NotShooting--><path d="M127.807,53.6585 C115.9644,53.8333 79.2812,56.1204 62.2471,77.1565 C61.3827,78.224 60.6839,79.4045 60.1234,80.6552 C59.8431,81.2806 59.5973,81.9234 59.3827,82.5784 C59.329,82.7422 59.2773,82.9067 59.2275,83.0718 " fill="none" id="*start-to-NotShooting" style="stroke:#A80036;stroke-width:0.37273695420660274;"/><polygon fill="#A80036" points="59.2275,83.0718,61.6236,80.2906,59.7657,81.2876,58.7688,79.4296,59.2275,83.0718" style="stroke:#A80036;stroke-width:0.37273695420660274;"/><!--MD5=[757eb7be151885704a76edfa2189e6cb]
link *start*NotShooting to Idle--><path d="M77.5293,106.7138 C77.5293,113.044 77.5293,126.7198 77.5293,136.4713 " fill="none" id="*start*NotShooting-to-Idle" style="stroke:#A80036;stroke-width:0.37273695420660274;"/><polygon fill="#A80036" points="77.5293,138.3659,79.0202,135.0113,77.5293,136.5022,76.0383,135.0113,77.5293,138.3659" style="stroke:#A80036;stroke-width:0.37273695420660274;"/><!--MD5=[182fd93969a20881a1cc689412d1880c]
link Idle to Configuring--><path d="M79.258,157.1921 C80.1634,162.3799 81.1761,169.0314 81.6294,175 C82.0118,180.036 82.1449,185.2883 82.102,190.5372 " fill="none" id="Idle-to-Configuring" style="stroke:#A80036;stroke-width:0.37273695420660274;"/><polygon fill="#A80036" points="82.0785,192.4706,83.6106,189.1345,82.1014,190.607,80.6289,189.0979,82.0785,192.4706" style="stroke:#A80036;stroke-width:0.37273695420660274;"/><text fill="#000000" font-family="sans-serif" font-size="4.8456" lengthAdjust="spacing" textLength="21.246" x="82.3749" y="179.8705">EvConfig</text><!--MD5=[3a2b2fa238b94d13fdc20ec915ba936c]
link Configuring to Idle--><path d="M54.8814,192.3852 C54.3074,186.5112 54.7308,180.6108 56.656,175 C58.7568,168.8778 62.8874,163.0765 66.9238,158.4441 " fill="none" id="Configuring-to-Idle" style="stroke:#A80036;stroke-width:0.37273695420660274;"/><polygon fill="#A80036" points="68.171,157.0453,64.8256,158.5569,66.9307,158.4363,67.0512,160.5414,68.171,157.0453" style="stroke:#A80036;stroke-width:0.37273695420660274;"/><text fill="#000000" font-family="sans-serif" font-size="4.8456" lengthAdjust="spacing" textLength="21.246" x="57.0288" y="179.8705">EvConfig</text><!--MD5=[61418e031098ad0a51178295f9da292a]
@startuml
[*] - -> State1
State1 - -> [*]
State1 : this is a string
State1 : this is another string

State1 -> State2
State2 - -> [*]



[*] -up-> First
First -right-> Second
Second - -> Third
Third -left-> Last



[*] - -> Active
Active - -> Inactive
note left of Active : this is a short\nnote
note right of Inactive
  A note can also
  be defined on
  several lines
end note




scale 350 width
[*] - -> NotShooting

state NotShooting {
  [*] - -> Idle
  Idle - -> Configuring : EvConfig
  Configuring - -> Idle : EvConfig
}

state Configuring {
  [*] - -> NewValueSelection
  NewValueSelection - -> NewValuePreview : EvNewValue
  NewValuePreview - -> NewValueSelection : EvNewValueRejected
  NewValuePreview - -> NewValueSelection : EvNewValueSaved
  
  state NewValuePreview {
	 State1 -> State2
  }
  
}
@enduml

PlantUML version 1.2021.7(Sun May 23 12:40:07 UTC 2021)
(GPL source distribution)
Java Runtime: Java(TM) SE Runtime Environment
JVM: Java HotSpot(TM) 64-Bit Server VM
Default Encoding: UTF-8
Language: en
Country: US
--></g></svg>